<?xml version="1.0" encoding="UTF-8"?>
<!DOCTYPE svg PUBLIC "-//W3C//DTD SVG 1.1//EN" "http://www.w3.org/Graphics/SVG/1.1/DTD/svg11.dtd">
<!-- Creator: CorelDRAW -->
<svg xmlns="http://www.w3.org/2000/svg" fill="#B2B3B3" xml:space="preserve" width="36mm" height="47mm" version="1.1" style="shape-rendering:geometricPrecision; text-rendering:geometricPrecision; image-rendering:optimizeQuality; fill-rule:evenodd; clip-rule:evenodd"
viewBox="0 0 3600 4700"
 xmlns:xlink="http://www.w3.org/1999/xlink"
 xmlns:xodm="http://www.corel.com/coreldraw/odm/2003">

 <g id="Слой_x0020_1">
  <metadata id="CorelCorpID_0Corel-Layer"/>
  <path d="M2300.63 4298.15c-10.81,0.16 -15.56,6.49 -21.88,12.81 -6.33,6.33 -14.23,12.65 -22.14,13.84 -7.91,1.18 -15.82,-2.77 -22.94,-6.33 -7.11,-3.56 -13.44,-6.72 -19.37,-2.37 -5.93,4.35 -11.46,16.21 -20.16,26.09 -8.7,9.89 -20.56,17.8 -28.08,16.21 -7.5,-1.58 -10.67,-12.65 -16.99,-21.74 -6.33,-9.09 -15.81,-16.21 -25.7,-15.03 -9.88,1.19 -20.16,10.68 -32.42,23.73 -12.26,13.04 -26.49,29.65 -37.95,41.9 -11.47,12.26 -20.17,20.17 -25.71,32.42 -5.53,12.26 -7.9,28.87 -10.67,41.12 -2.77,12.26 -5.93,20.17 -11.46,29.26 -5.54,9.09 -13.45,19.38 -24.12,26.88 -10.67,7.52 -24.12,12.26 -30.45,25.31 -6.32,13.05 -5.53,34.4 -5.53,52.19 0,17.79 -0.79,32.02 -15.02,26.09 -14.24,-5.93 -41.91,-32.02 -58.92,-47.05 -16.99,-15.02 -23.32,-18.98 -29.25,-17 -5.93,1.98 -11.46,9.89 -17.4,5.14 -5.93,-4.74 -12.25,-22.13 -21.34,-37.95 -9.1,-15.82 -20.96,-30.05 -29.26,-32.03 -8.3,-1.98 -13.05,8.31 -20.17,14.63 -7.11,6.33 -16.6,8.7 -37.55,1.58 -20.96,-7.11 -53.38,-23.72 -74.82,-31.46 -21.43,-7.73 -31.88,-6.59 -41.78,-9.13 -9.89,-2.54 -19.21,-8.76 -25.82,-5.65 -6.61,3.11 -10.49,15.55 -9.71,29.53 0.77,14 6.21,29.54 8.54,44.31 2.33,14.77 1.56,28.76 -5.83,37.7 -7.38,8.94 -21.37,12.82 -40.8,8.55 -19.43,-4.28 -44.31,-16.71 -68.8,-22.93 -24.48,-6.22 -48.57,-6.22 -65.68,-0.78 -17.1,5.44 -27.2,16.33 -37.69,18.27 -10.5,1.94 -21.38,-5.06 -31.87,-10.5 -10.5,-5.44 -20.6,-9.32 -33.04,-8.93 -12.43,0.39 -27.2,5.05 -41.97,6.6 -14.77,1.56 -29.53,0.01 -41.2,2.34 -11.65,2.33 -20.2,8.55 -31.09,8.16 -10.88,-0.39 -24.1,-7.39 -40.03,-12.05 -15.93,-4.66 -34.59,-7 -45.08,-14.77 -10.49,-7.77 -12.83,-20.98 -19.43,-23.71 -6.61,-2.72 -17.49,5.05 -27.21,11.27 -9.71,6.22 -18.26,10.88 -30.7,13.6 -12.43,2.73 -28.76,3.5 -39.25,-0.77 -10.49,-4.28 -15.16,-13.6 -14.38,-23.71 0.78,-10.11 6.99,-20.98 2.33,-30.31 -4.66,-9.33 -20.21,-17.1 -35.76,-16.71 -15.54,0.39 -31.09,8.94 -52.07,11.27 -20.99,2.33 -47.42,-1.56 -66.47,-6.61 -19.04,-5.05 -30.7,-11.27 -36.92,-7.78 -6.21,3.51 -6.99,16.72 -5.05,31.1 1.95,14.38 6.61,29.93 3.89,44.3 -2.72,14.38 -12.82,27.6 -23.71,36.92 -10.88,9.33 -22.54,14.77 -28.76,22.55 -6.22,7.77 -6.99,17.87 -11.65,29.92 -4.67,12.05 -13.22,26.04 -23.71,34.59 -10.49,8.55 -22.93,11.66 -42.76,5.05 -19.81,-6.6 -47.02,-22.93 -66.45,-36.92 -19.43,-13.99 -31.09,-25.65 -40.81,-33.42 -9.71,-7.77 -17.49,-11.66 -24.87,-9.72 -7.39,1.95 -14.38,9.72 -21.38,19.05 -6.99,9.32 -13.99,20.21 -26.81,26.81 -12.83,6.61 -31.48,8.94 -48.97,5.83 -17.49,-3.1 -33.82,-11.66 -47.03,-17.88 -13.22,-6.22 -23.32,-10.1 -34.59,-5.05 -11.27,5.06 -23.7,19.05 -40.03,20.99 -16.32,1.94 -36.53,-8.16 -54.41,-18.27 -17.87,-10.11 -33.42,-20.21 -46.25,-18.66 -12.82,1.56 -22.93,14.77 -32.25,26.43 -9.33,11.66 -17.88,21.77 -29.16,23.32 -11.26,1.56 -25.25,-5.44 -30.69,-17.1 -5.45,-11.65 -2.34,-27.98 -8.17,-43.53 -5.83,-15.54 -20.6,-30.31 -25.26,-43.91 -4.66,-13.6 0.78,-26.04 -2.33,-44.31 -3.11,-18.26 -14.77,-42.36 -24.49,-57.9 -9.71,-15.55 -17.48,-22.54 -12.82,-38.48 4.66,-15.93 21.76,-40.81 27.21,-64.91 5.44,-24.09 -0.78,-47.41 -7,-61.4 -6.22,-13.99 -12.43,-18.65 -11.27,-26.43 1.17,-7.77 9.72,-18.65 10.88,-33.42 1.17,-14.77 -5.05,-33.42 -15.93,-57.13 -10.88,-23.71 -26.43,-52.47 -29.15,-79.28 -2.72,-26.82 7.38,-51.7 20.6,-65.3 13.21,-13.6 29.54,-15.93 41.97,-9.71 12.44,6.22 20.99,20.98 36.14,29.53 15.16,8.55 36.92,10.89 49.75,4.67 12.82,-6.22 16.71,-20.99 24.49,-27.6 7.77,-6.6 19.43,-5.05 25.64,-7.77 6.22,-2.72 7,-9.71 8.55,-16.71 1.56,-7 3.89,-13.99 8.55,-15.94 4.67,-1.94 11.67,1.17 17.1,-3.88 5.45,-5.05 9.33,-18.27 15.55,-26.82 6.22,-8.55 14.77,-12.43 26.04,-11.27 11.27,1.17 25.26,7.39 37.7,4.28 12.44,-3.11 23.32,-15.55 22.93,-25.27 -0.39,-9.71 -12.05,-16.71 -14.38,-23.7 -2.33,-6.99 4.66,-13.99 5.05,-21.37 0.39,-7.39 -5.83,-15.16 -12.83,-22.16 -6.99,-7 -14.76,-13.21 -14.76,-20.6 0,-7.38 7.77,-15.93 5.82,-27.59 -1.94,-11.66 -13.6,-26.43 -18.26,-43.92 -4.66,-17.49 -2.33,-37.69 2.33,-61.01 4.67,-23.32 11.67,-49.75 16.32,-77.35 4.67,-27.59 7,-56.35 14.38,-75.39 7.39,-19.05 19.83,-28.37 26.04,-39.25 6.22,-10.88 6.22,-23.32 20.6,-30.71 14.39,-7.38 43.14,-9.71 62.58,-10.49 19.43,-0.78 29.53,0 38.47,10.49 8.94,10.5 16.72,30.71 22.93,46.25 6.22,15.55 10.88,26.43 24.09,23.32 13.22,-3.11 34.99,-20.21 56.75,-43.92 21.76,-23.7 43.53,-54.02 57.52,-78.12 13.99,-24.09 20.21,-41.97 19.43,-52.46 -0.78,-10.49 -8.55,-13.61 -19.05,-15.55 -10.49,-1.94 -23.7,-2.72 -29.53,-8.94 -5.83,-6.21 -4.28,-17.87 -12.44,-33.81 -8.16,-15.93 -26.04,-36.14 -36.14,-56.35 -10.1,-20.21 -12.44,-40.42 -3.5,-62.57 8.94,-22.16 29.15,-46.25 51.69,-76.57 22.54,-30.31 47.42,-66.84 67.62,-87.44 20.21,-20.6 35.76,-25.26 55.19,-25.65 19.44,-0.39 42.75,3.5 59.07,-7.78 16.33,-11.26 25.66,-37.69 38.48,-57.9 12.83,-20.21 29.15,-34.2 41.98,-45.86 12.82,-11.66 22.14,-20.99 22.53,-40.42 0.39,-19.43 -8.16,-48.97 -11.65,-73.07 -3.5,-24.09 -1.95,-42.75 1.94,-60.23 3.89,-17.49 10.1,-33.82 9.71,-41.98 -0.38,-8.16 -7.38,-8.16 -22.93,-6.99 -15.54,1.16 -39.63,3.49 -60.23,0.78 -20.6,-2.72 -37.71,-10.5 -49.36,-30.32 -11.66,-19.82 -17.88,-51.69 -17.1,-74.23 0.78,-22.54 8.55,-35.76 17.49,-45.09 8.94,-9.32 19.04,-14.76 22.15,-23.31 3.11,-8.55 -0.78,-20.21 -3.89,-29.54 -3.1,-9.32 -5.44,-16.32 -6.61,-27.59 -1.16,-11.27 -1.16,-26.82 2.34,-47.42 3.49,-20.59 10.49,-46.25 8.16,-63.35 -2.33,-17.1 -13.99,-25.65 -33.82,-36.53 -19.81,-10.88 -47.79,-24.09 -65.67,-27.98 -17.88,-3.89 -25.65,1.55 -41.98,-0.39 -16.32,-1.94 -41.19,-11.27 -60.24,-28.37 -19.04,-17.1 -32.25,-41.97 -42.36,-65.68 -10.1,-23.71 -17.1,-46.25 -30.7,-57.91 -13.6,-11.66 -33.82,-12.43 -46.25,-12.82 -12.44,-0.39 -17.1,-0.39 -15.94,-10.89 1.17,-10.49 8.17,-31.48 15.55,-60.24 7.38,-28.76 15.16,-65.29 20.21,-92.88 5.06,-27.59 7.38,-46.25 14.38,-55.58 7,-9.33 18.66,-9.33 31.48,-10.88 12.83,-1.55 26.82,-4.67 35.36,-8.55 8.55,-3.89 11.67,-8.55 12.06,-22.93 0.39,-14.38 -1.95,-38.47 -1.56,-50.91 0.39,-12.44 3.5,-13.22 10.88,-11.28 7.39,1.95 19.05,6.61 28.37,7.78 9.33,1.17 16.33,-1.17 21.38,-14.38 5.05,-13.21 8.16,-37.31 17.87,-45.47 9.72,-8.16 26.05,-0.39 40.03,0.78 14,1.16 25.66,-4.28 29.16,-19.05 3.49,-14.76 -1.17,-38.86 2.32,-64.51 3.5,-25.65 15.16,-52.86 29.15,-106.88 13.99,-54.02 30.32,-134.86 42.37,-186.94 12.04,-52.08 19.82,-75.39 29.92,-95.6 10.11,-20.21 22.55,-37.31 31.87,-64.13 9.33,-26.81 15.55,-63.35 21.76,-96.77 6.22,-33.42 12.44,-63.74 19.05,-88.22 6.61,-24.49 13.6,-43.14 12.43,-61.8 -1.16,-18.65 -10.49,-37.3 -20.2,-57.13 -9.72,-19.81 -19.82,-40.81 -26.82,-67.23 -6.99,-26.43 -10.89,-58.3 -16.33,-87.06 -5.43,-28.76 -12.43,-54.41 -16.32,-83.56 -3.88,-29.14 -4.66,-61.79 0.78,-86.27 5.44,-24.49 17.1,-40.81 26.43,-52.86 9.32,-12.05 16.32,-19.82 17.49,-29.54 1.16,-9.71 -3.5,-21.37 -0.39,-36.14 3.11,-14.77 13.99,-32.65 13.99,-55.58 0,-22.93 -10.88,-50.91 -19.05,-75 -8.16,-24.1 -13.59,-44.31 -12.04,-64.13 1.55,-19.83 10.1,-39.25 7.77,-56.36 -2.33,-17.1 -15.54,-31.86 -19.43,-48.97 -3.89,-17.1 1.55,-36.53 10.49,-54.4 8.94,-17.88 21.38,-34.21 33.43,-47.03 12.04,-12.83 23.7,-22.15 40.8,-22.15 17.1,0 39.65,9.32 55.58,17.09 15.93,7.78 25.26,14 38.48,19.05 13.21,5.05 30.31,8.94 44.3,13.61 13.99,4.66 24.87,10.1 30.31,16.31 5.45,6.22 5.45,13.22 6.61,28.38 1.17,15.16 3.5,38.48 4.66,58.29 1.17,19.83 1.17,36.15 10.11,42.37 8.94,6.22 26.82,2.33 62.18,-0.01 35.37,-2.33 88.23,-3.1 130.98,0.79 42.75,3.88 75.39,12.43 106.09,19.04 30.71,6.61 59.47,11.27 87.06,13.6 27.59,2.33 54.03,2.33 87.06,15.55 33.03,13.21 72.68,39.64 116.59,78.11 43.92,38.48 92.11,89 130.58,119.7 38.48,30.71 67.24,41.59 117.76,64.52 50.53,22.93 122.81,57.91 175.28,102.99 52.47,45.08 85.11,100.27 104.93,141.47 19.83,41.19 26.82,68.4 25.26,90.55 -1.55,22.15 -11.65,39.25 -16.32,68.01 -4.66,28.76 -3.88,69.18 26.04,146.52 29.93,77.34 89,191.61 119.7,256.51 30.71,64.9 33.04,80.45 30.32,92.1 -2.72,11.66 -10.49,19.44 -12.05,29.15 -1.55,9.72 3.11,21.38 31.09,40.42 27.98,19.04 79.29,45.47 109.21,63.35 29.93,17.88 38.48,27.2 56.74,82 18.27,54.8 46.25,155.07 59.46,233.58 13.22,78.5 11.66,135.25 15.94,172.55 4.27,37.31 14.38,55.19 26.43,70.35 12.05,15.15 26.04,27.6 85.11,36.53 59.08,8.94 163.23,14.38 233.57,22.93 70.35,8.55 106.88,20.21 129.42,34.2 22.54,13.99 31.1,30.32 35.37,43.14 4.28,12.83 4.28,22.15 12.44,27.6 8.16,5.44 24.48,6.99 34.2,21.76 9.71,14.77 12.83,42.75 19.43,74.62 6.61,31.87 16.71,67.62 24.87,104.16 8.17,36.53 14.38,73.84 35.76,117.36 21.38,43.54 57.9,93.28 81.61,119.71 23.71,26.43 34.59,29.53 50.91,32.25 16.33,2.73 38.09,5.06 52.08,9.72 14,4.66 20.21,11.66 24.1,34.59 3.89,22.93 5.44,61.8 7,107.26 1.55,45.48 3.1,97.56 12.43,137.98 9.33,40.42 26.43,69.17 38.48,96.77 12.04,27.59 19.04,54.02 15.93,73.45 -3.11,19.43 -16.32,31.87 -29.15,42.75 -12.82,10.88 -25.26,20.21 -41.2,22.93 -15.93,2.72 -35.36,-1.16 -46.24,5.44 -10.89,6.61 -13.22,23.71 -15.94,35.76 -2.72,12.04 -5.82,19.04 -15.93,16.71 -10.1,-2.33 -27.21,-14 -38.09,-8.94 -10.88,5.05 -15.54,26.82 -21.38,44.7 -5.82,17.87 -12.82,31.86 -22.15,38.08 -9.32,6.22 -20.98,4.67 -31.87,-2.33 -10.88,-7 -20.98,-19.43 -32.64,-24.48 -11.66,-5.06 -24.88,-2.72 -61.41,18.26 -36.53,20.99 -96.38,60.63 -126.31,83.95 -29.92,23.32 -29.92,30.31 -29.92,40.42 0,10.1 0,23.32 5.44,32.64 5.44,9.33 16.32,14.77 19.04,38.48 2.72,23.71 -2.72,65.68 -10.88,97.16 -8.16,31.48 -19.04,52.47 -19.04,70.73 0,18.27 10.88,33.82 22.54,42.75 11.66,8.94 24.1,11.27 29.92,34.2 5.84,22.93 5.06,66.46 8.17,99.49 3.11,33.04 10.1,55.58 15.93,76.96 5.83,21.38 10.49,41.58 23.32,47.41 12.82,5.83 33.81,-2.72 43.91,1.94 10.11,4.67 9.34,22.55 5.06,42.36 -4.27,19.83 -12.05,41.6 -32.65,49.76 -20.59,8.16 -54.02,2.71 -77.34,-7.78 -23.31,-10.49 -36.53,-26.04 -50.91,-26.82 -14.38,-0.77 -29.93,13.22 -47.8,17.49 -17.88,4.28 -38.09,-1.16 -49.75,-1.55 -11.65,-0.39 -14.77,4.27 -20.99,11.66 -6.21,7.38 -15.54,17.49 -31.48,24.09 -15.93,6.61 -38.47,9.72 -48.97,18.27 -10.49,8.55 -8.94,22.54 -5.05,35.75 3.89,13.22 10.11,25.66 -0.39,38.09 -10.49,12.44 -37.69,24.88 -48.58,41.59 -10.88,16.71 -5.44,37.7 -14.76,48.97 -9.33,11.27 -33.42,12.82 -56.74,15.54 -23.32,2.72 -45.87,6.61 -70.74,-1.17 -24.87,-7.77 -52.08,-27.2 -82.01,-46.63 -29.92,-19.43 -62.56,-38.86 -80.44,-41.98 -17.88,-3.1 -20.99,10.11 -23.33,24.49 -2.33,14.38 -3.88,29.92 -11.26,34.2 -7.39,4.27 -20.6,-2.72 -34.98,-8.94 -14.38,-6.22 -29.93,-11.66 -44.7,-15.16 -14.76,-3.5 -28.75,-5.05 -44.19,-8.84 -15.43,-3.78 -32.3,-9.8 -43.11,-9.65z"/>
 </g>
</svg>
