<?xml version="1.0" encoding="UTF-8"?>
<!DOCTYPE svg PUBLIC "-//W3C//DTD SVG 1.1//EN" "http://www.w3.org/Graphics/SVG/1.1/DTD/svg11.dtd">
<!-- Creator: CorelDRAW -->
<svg xmlns="http://www.w3.org/2000/svg" fill="#254776" xml:space="preserve" width="40mm" height="47mm" version="1.1" style="shape-rendering:geometricPrecision; text-rendering:geometricPrecision; image-rendering:optimizeQuality; fill-rule:evenodd; clip-rule:evenodd"
viewBox="0 0 4000 4700"
 xmlns:xlink="http://www.w3.org/1999/xlink"
 xmlns:xodm="http://www.corel.com/coreldraw/odm/2003">
 <g id="Слой_x0020_1">
  <metadata id="CorelCorpID_0Corel-Layer"/>
  <path d="M2303.86 2475.85c19.58,33.27 29.36,68.51 25.45,120.36 -3.91,51.85 -21.52,120.33 -25.43,167.3 -3.91,46.97 5.86,72.39 21.5,82.18 15.66,9.79 37.2,3.93 53.84,29.36 16.63,25.45 28.36,82.18 39.12,124.24 10.78,42.09 20.55,69.48 71.42,91.97 50.88,22.51 142.85,40.12 197.64,38.15 54.78,-1.94 72.41,-23.48 84.14,-53.81 11.76,-30.31 17.61,-69.46 15.65,-121.31 -1.95,-51.85 -11.74,-116.42 8.81,-179.05 20.55,-62.61 71.42,-123.25 109.58,-158.49 38.15,-35.21 63.6,-45 110.54,-47.94 46.97,-2.93 115.48,0.98 154.6,-0.02 39.15,-0.97 48.91,-6.82 51.85,-32.27 2.94,-25.43 -0.97,-70.43 13.7,-87.07 14.69,-16.63 47.94,-4.88 80.21,0.97 32.3,5.88 63.63,5.88 91.02,-11.73 27.39,-17.6 50.88,-52.84 52.82,-89.05 1.97,-36.18 -17.61,-73.36 -6.85,-99.79 10.76,-26.42 51.87,-42.06 73.39,-68.48 21.52,-26.42 23.48,-63.58 24.46,-87.06 0.97,-23.49 0.97,-33.27 17.6,-42.09 16.64,-8.79 49.91,-16.63 67.52,-34.24 17.6,-17.61 19.57,-45 35.21,-57.73 15.66,-12.7 45,-10.76 71.42,-33.27 26.42,-22.49 49.91,-69.45 46,-105.66 -3.91,-36.19 -35.24,-61.64 -37.2,-89.03 -1.95,-27.4 25.45,-56.73 65.56,-54.79 40.12,1.97 92.94,35.22 126.21,39.13 33.27,3.93 46.97,-21.52 51.85,-68.49 4.91,-46.94 1,-115.43 -17.6,-154.57 -18.58,-39.13 -51.85,-48.92 -83.18,-47.94 -31.3,0.97 -60.64,12.72 -96.85,22.49 -36.21,9.78 -79.24,17.62 -115.45,12.72 -36.19,-4.88 -65.55,-22.49 -92.94,-29.34 -27.39,-6.85 -52.82,-2.94 -71.42,-9.78 -18.58,-6.85 -30.34,-24.46 -36.21,-53.82 -5.86,-29.34 -5.86,-70.45 -17.61,-92.96 -11.73,-22.49 -35.21,-26.4 -54.79,-20.52 -19.57,5.87 -35.21,21.51 -63.6,40.09 -28.36,18.6 -69.46,40.14 -97.84,41.11 -28.37,0.98 -44.01,-18.6 -70.43,-36.2 -26.42,-17.61 -63.58,-33.27 -84.13,-22.52 -20.54,10.79 -24.47,47.94 -36.23,67.52 -11.73,19.57 -31.28,21.51 -55.76,30.33 -24.45,8.81 -53.79,24.45 -82.18,42.06 -28.36,17.63 -55.76,37.18 -88.06,23.48 -32.27,-13.69 -69.45,-60.64 -102.72,-81.18 -33.27,-20.55 -62.61,-14.69 -82.18,0.95 -19.58,15.66 -29.34,41.11 -80.22,45.99 -50.88,4.91 -142.84,-10.76 -194.72,-2.94 -51.84,7.85 -63.58,39.15 -62.6,106.66 0.97,67.52 14.67,171.21 21.51,256.33 6.85,85.12 6.85,151.66 -23.48,203.51 -30.33,51.85 -90.97,89.03 -154.58,96.85 -63.6,7.85 -130.12,-13.69 -284.71,-59.69 -154.58,-45.97 -397.21,-116.4 -522.45,-163.37 -125.22,-46.96 -133.06,-70.45 -133.06,-113.5 0,-43.04 7.84,-105.67 26.42,-140.88 18.58,-35.22 47.94,-43.06 71.4,-50.88 23.49,-7.82 41.12,-15.66 50.9,-36.21 9.79,-20.54 11.73,-53.79 35.22,-79.24 23.48,-25.43 68.48,-43.06 97.82,-57.73 29.36,-14.67 43.06,-26.42 25.45,-54.79 -17.61,-28.36 -66.54,-73.38 -89.05,-142.84 -22.49,-69.46 -18.56,-163.39 -38.13,-217.21 -19.58,-53.79 -62.61,-67.49 -134.03,-76.3 -71.43,-8.79 -171.24,-12.73 -233.87,-26.42 -62.61,-13.7 -88.03,-37.18 -104.67,-64.58 -16.63,-27.39 -24.45,-58.7 -15.66,-93.93 8.81,-35.22 34.26,-74.34 38.17,-112.51 3.91,-38.16 -13.72,-75.32 -28.38,-107.61 -14.67,-32.28 -26.43,-59.7 -50.88,-77.3 -24.46,-17.61 -61.64,-25.43 -72.4,-60.67 -10.76,-35.21 4.89,-97.82 4.89,-144.79 0,-46.96 -15.65,-78.27 -39.13,-83.17 -23.48,-4.88 -54.79,16.66 -155.57,131.11 -100.76,114.48 -271,321.9 -354.17,447.12 -83.16,125.24 -79.25,168.29 -81.21,199.6 -1.95,31.3 -9.79,50.87 -33.27,61.63 -23.46,10.76 -62.61,12.73 -89.03,14.67 -26.4,1.97 -40.1,3.91 -45,36.19 -4.89,32.3 -0.98,94.93 11.73,129.17 12.72,34.24 34.26,40.12 45.02,55.76 10.76,15.66 10.76,41.11 10.76,121.33 0,80.23 0,215.24 13.7,286.66 13.69,71.42 41.09,79.26 69.45,89.03 28.39,9.78 57.73,21.54 75.33,44.03 17.63,22.51 23.49,55.76 23.49,87.06 0,31.33 -5.86,60.66 -0.97,83.18 4.9,22.51 20.54,38.15 64.57,46.96 44.03,8.82 116.45,10.76 166.33,22.49 49.9,11.75 77.3,33.29 93.93,70.45 16.64,37.18 22.49,90.03 -16.65,176.12 -39.13,86.09 -123.25,205.47 -219.15,316.99 -95.88,111.54 -203.49,215.26 -254.37,273.96 -50.88,58.7 -45.02,72.4 3.89,83.16 48.93,10.75 140.9,18.6 189.81,31.3 48.94,12.72 54.79,30.33 41.09,86.09 -13.69,55.78 -46.94,149.69 -65.54,213.3 -18.58,63.6 -22.49,96.85 -29.34,134.03 -6.85,37.18 -16.64,78.29 -25.45,105.68 -8.79,27.4 -16.64,41.09 -9.79,53.8 6.85,12.72 28.39,24.47 83.18,37.18 54.79,12.72 142.84,26.42 200.57,36.21 57.72,9.78 85.12,15.64 106.64,43.03 21.54,27.39 37.18,76.33 52.82,99.81 15.66,23.48 31.32,21.52 57.72,24.46 26.42,2.93 63.6,10.78 75.34,32.29 11.75,21.52 -1.95,56.76 -15.65,91.97 -13.69,35.22 -27.39,70.45 -17.6,88.06 9.78,17.61 43.03,17.61 70.43,23.46 27.39,5.88 48.93,17.63 70.45,30.33 21.51,12.73 43.05,26.43 65.54,24.46 22.51,-1.94 46,-19.55 50.88,-50.86 4.9,-31.3 -8.79,-76.32 -2.94,-124.26 5.88,-47.94 31.33,-98.82 71.42,-137.96 40.12,-39.13 94.93,-66.52 146.78,-71.43 51.85,-4.88 100.78,12.73 134.03,47.94 33.27,35.24 50.88,88.06 57.73,119.36 6.85,31.33 2.94,41.12 13.69,56.76 10.76,15.66 36.21,37.2 63.61,50.9 27.39,13.69 56.73,19.55 81.18,10.73 24.48,-8.79 44.03,-32.27 66.54,-21.51 22.52,10.75 47.94,55.78 67.52,106.65 19.57,50.88 33.27,107.61 31.3,156.52 -1.94,48.94 -19.57,90.03 3.91,116.43 23.48,26.42 88.06,38.17 146.76,47.94 58.72,9.78 111.54,17.63 154.59,20.54 43.06,2.94 76.31,1 96.85,10.76 20.55,9.79 28.39,31.33 35.24,54.81 6.85,23.48 12.7,48.91 41.07,60.64 28.39,11.76 79.26,9.81 112.53,11.76 33.27,1.96 48.92,7.82 60.65,16.63 11.75,8.81 19.59,20.55 31.32,28.37 11.73,7.84 27.4,11.75 54.79,15.66 27.39,3.91 66.52,7.84 98.79,-3.91 32.3,-11.73 57.75,-39.15 65.57,-66.54 7.82,-27.4 -1.94,-54.79 -12.72,-76.33 -10.76,-21.52 -22.49,-37.16 -47.94,-45 -25.43,-7.82 -64.58,-7.82 -83.15,-20.54 -18.58,-12.71 -16.64,-38.16 -7.85,-70.43 8.82,-32.28 24.48,-71.43 39.15,-106.64 14.67,-35.21 28.37,-66.54 22.49,-105.69 -5.86,-39.12 -31.31,-86.07 -56.73,-137.94 -25.43,-51.85 -50.88,-108.58 -53.82,-149.69 -2.91,-41.09 16.64,-66.52 67.51,-101.76 50.88,-35.21 133.06,-80.21 200.58,-119.36 67.51,-39.12 120.33,-72.39 146.75,-102.72 26.42,-30.34 26.42,-57.73 23.48,-85.12 -2.93,-27.4 -8.79,-54.79 -22.49,-68.49 -13.69,-13.69 -35.23,-13.69 -138.95,-14.69 -103.7,-0.97 -289.58,-2.91 -386.45,-19.55 -96.85,-16.63 -104.7,-47.94 -143.84,-61.64 -39.13,-13.69 -109.56,-9.78 -155.55,-12.72 -45.97,-2.94 -67.51,-12.73 -72.42,-43.06 -4.88,-30.33 6.87,-81.18 19.58,-130.12 12.72,-48.91 26.42,-95.88 35.21,-145.78 8.81,-49.88 12.75,-102.73 23.51,-140.88 10.75,-38.15 28.36,-61.64 40.09,-106.66 11.76,-45 17.63,-111.52 37.2,-153.6 19.58,-42.07 52.83,-59.67 77.28,-74.34 24.48,-14.67 40.12,-26.42 62.61,-16.64 22.51,9.79 51.87,41.09 71.42,74.34z"/>
 </g>
</svg>
