<?xml version="1.0" encoding="UTF-8"?>
<!DOCTYPE svg PUBLIC "-//W3C//DTD SVG 1.1//EN" "http://www.w3.org/Graphics/SVG/1.1/DTD/svg11.dtd">
<!-- Creator: CorelDRAW -->
<svg xmlns="http://www.w3.org/2000/svg" xml:space="preserve" width="84mm" height="12mm" version="1.1" style="shape-rendering:geometricPrecision; text-rendering:geometricPrecision; image-rendering:optimizeQuality; fill-rule:evenodd; clip-rule:evenodd"
viewBox="0 0 8400 1200"
 xmlns:xlink="http://www.w3.org/1999/xlink"
 xmlns:xodm="http://www.corel.com/coreldraw/odm/2003">
 <defs>
  <style type="text/css">
   <![CDATA[
    .fil6 {fill:#FEFEFE}
    .fil1 {fill:#EBECEC}
    .fil0 {fill:#1F71B7}
    .fil4 {fill:#254776}
    .fil2 {fill:#254776}
    .fil3 {fill:#FEFEFE;fill-rule:nonzero}
    .fil5 {fill:#254776;fill-rule:nonzero}
   ]]>
  </style>
 </defs>
 <g id="Слой_x0020_1">
  <metadata id="CorelCorpID_0Corel-Layer"/>
  <g id="_1747803422048">
   <path class="fil0" d="M7916.64 809.66c7.59,0.28 16.43,-0.71 24.83,-3.72 8.41,-3.03 16.39,-8.09 22.95,-14.28 6.56,-6.19 11.7,-13.52 15.48,-21.94 3.79,-8.43 6.22,-17.97 6.47,-27.29 0.25,-9.31 -1.67,-18.42 -3.42,-25.43 -1.74,-7.01 -3.3,-11.93 -3.49,-15.81 -0.18,-3.88 1.01,-6.73 3.58,-8.33 2.57,-1.6 6.51,-1.98 24.86,-2.08 18.36,-0.11 51.11,0.06 67.49,0.14 16.37,0.08 16.37,0.08 16.37,0.08 0,0 0,0 0,78.46 0,78.46 0,235.38 0,313.84 0,78.46 0,78.46 0,78.46 0,0 0,0 -18.75,0 -18.76,0 -56.28,0 -733.89,0 -677.61,0 -1995.32,0 -2654.18,0 -658.85,0 -658.85,0 -658.85,0 0,0 0,0 0.02,-29.92 0.02,-29.92 0.06,-89.74 0.4,-120.96 0.35,-31.22 0.99,-33.83 3.93,-35.57 2.93,-1.74 8.15,-2.62 13.16,-1.97 5.01,0.65 9.81,2.81 15.76,4.5 5.95,1.69 13.06,2.89 21.72,2.1 8.67,-0.81 18.89,-3.62 26.79,-7.28 7.9,-3.67 13.47,-8.19 18.66,-13.85 5.19,-5.67 10.01,-12.48 13.35,-20.17 3.35,-7.69 5.21,-16.28 5.28,-24.6 0.06,-8.33 -1.68,-16.41 -4.79,-23.79 -3.1,-7.39 -7.58,-14.09 -13.92,-20.15 -6.35,-6.06 -14.56,-11.49 -21.42,-15.13 -6.86,-3.65 -12.36,-5.52 -18.39,-6.19 -6.02,-0.67 -12.57,-0.16 -17.75,0.41 -5.18,0.57 -8.99,1.19 -13.75,2.81 -4.76,1.62 -10.46,4.24 -15.2,4.96 -4.75,0.72 -8.54,-0.47 -10.71,-3.29 -2.17,-2.83 -2.72,-7.3 -3.13,-34.68 -0.41,-27.39 -0.69,-77.7 -0.67,-102.84 0.02,-25.15 0.34,-25.15 0.5,-25.15 0.16,0 0.16,0 173.43,-0.26 173.28,-0.26 519.82,-0.78 693.1,-1.03 173.27,-0.26 173.27,-0.26 174.9,-1.47 1.64,-1.2 4.92,-3.6 6.11,-6.96 1.19,-3.36 0.29,-7.67 -1.26,-13.37 -1.55,-5.7 -3.76,-12.8 -4.97,-20.44 -1.21,-7.66 -1.42,-15.88 0.39,-24.74 1.81,-8.86 5.65,-18.37 11.71,-26.09 6.07,-7.72 14.36,-13.64 24.14,-18.32 9.77,-4.67 21.01,-8.1 31.88,-7.93 10.87,0.18 21.37,3.96 29.74,9.13 8.38,5.15 14.64,11.69 20.34,19.03 5.7,7.34 10.84,15.48 12.99,24.27 2.17,8.79 1.35,18.22 0.14,25.83 -1.2,7.6 -2.78,13.36 -4.17,18.7 -1.38,5.34 -2.57,10.27 -2.03,13.97 0.54,3.7 2.79,6.18 7.4,7.53 4.61,1.35 11.58,1.57 24.59,1.74 13.01,0.17 32.07,0.29 468.9,0.35 436.83,0.06 1291.44,0.06 1721.19,0.32 429.77,0.25 434.67,0.77 438.48,1.75 3.82,0.98 6.56,2.43 8.19,3.63 1.64,1.2 2.18,2.16 2.55,3.53 0.36,1.36 0.55,3.12 -0.63,7.12 -1.18,4 -3.72,10.22 -5.48,16.78 -1.74,6.56 -2.7,13.46 -2.6,20.13 0.1,6.67 1.26,13.11 4.34,20.61 3.08,7.49 8.08,16.04 14.57,23.12 6.5,7.09 14.48,12.71 21.64,16.3 7.18,3.59 13.54,5.14 21.13,5.43z"/>
   <path class="fil1" d="M2980.04 1161.76c619.12,0 832.59,0 939.32,0 106.73,0 106.73,0 106.73,0 0,0 0,0 0.18,-28.95 0.17,-28.95 0.52,-86.85 0.78,-116.83 0.26,-30 0.43,-32.07 0.85,-34.08 0.42,-2.01 1.1,-3.94 3.05,-5.62 1.95,-1.68 5.18,-3.11 10.03,-2.59 4.86,0.5 11.36,2.95 17.23,4.63 5.88,1.69 11.14,2.6 16.89,2.84 5.76,0.23 12.01,-0.23 17.92,-1.4 5.92,-1.17 11.5,-3.06 17.18,-6.24 5.69,-3.2 11.49,-7.69 16.7,-13.57 5.22,-5.89 9.84,-13.16 13.03,-20.25 3.19,-7.1 4.95,-14.03 5.68,-20.43 0.73,-6.39 0.43,-12.25 -1.4,-18.89 -1.82,-6.65 -5.16,-14.08 -9.56,-20.68 -4.4,-6.6 -9.86,-12.37 -15.35,-16.8 -5.49,-4.44 -11.01,-7.53 -15.63,-9.71 -4.61,-2.19 -8.31,-3.47 -12.55,-4.3 -4.24,-0.83 -9.02,-1.21 -14.96,-0.78 -5.93,0.43 -13,1.65 -18.78,3.11 -5.77,1.47 -10.24,3.15 -13.83,4.14 -3.59,0.99 -6.3,1.27 -8.26,1.09 -1.96,-0.18 -3.17,-0.82 -4.36,-2.98 -1.18,-2.16 -2.35,-5.85 -3.15,-10.56 -0.8,-4.72 -1.25,-10.45 -1.47,-35.94 -0.22,-25.49 -0.22,-70.73 -0.22,-93.35 0,-22.62 0,-22.62 0,-22.62 0,0 0,0 -51.3,0 -51.29,0 -153.89,0 -206.17,0 -52.28,0 -54.26,0 -56.95,0.13 -2.68,0.13 -6.09,0.39 -8.09,2.48 -1.99,2.1 -2.57,6.02 -2.7,8.66 -0.12,2.63 0.22,3.97 1.72,9.89 1.5,5.93 4.17,16.44 5.37,24.31 1.21,7.87 0.95,13.1 -0.53,19.43 -1.48,6.32 -4.19,13.73 -7.63,20.14 -3.43,6.4 -7.6,11.8 -11.76,16.05 -4.15,4.24 -8.3,7.34 -12.88,9.9 -4.58,2.56 -9.59,4.57 -15.46,6.1 -5.87,1.53 -12.59,2.56 -20.24,1.94 -7.64,-0.62 -16.21,-2.89 -23.58,-6.11 -7.37,-3.22 -13.54,-7.37 -18.41,-11.83 -4.86,-4.46 -8.42,-9.23 -11.34,-14.17 -2.92,-4.93 -5.21,-10.03 -6.87,-15.64 -1.65,-5.61 -2.68,-11.73 -2.89,-17.37 -0.21,-5.63 0.41,-10.78 1.76,-16.57 1.36,-5.8 3.44,-12.23 4.79,-17.1 1.35,-4.87 1.96,-8.18 1.16,-11.29 -0.8,-3.12 -2.99,-6.03 -5.05,-7.49 -2.06,-1.46 -3.96,-1.46 -366.83,-1.64 -362.87,-0.18 -1086.7,-0.53 -1449.56,-0.9 -362.86,-0.38 -364.73,-0.78 -367.13,-1.58 -2.41,-0.81 -5.34,-2.02 -7.08,-3.1 -1.73,-1.09 -2.28,-2.05 -1.85,-5.25 0.43,-3.21 1.82,-8.66 3.45,-15.21 1.64,-6.55 3.51,-14.21 4.61,-21.62 1.1,-7.41 1.42,-14.57 -0.13,-21.59 -1.54,-7.03 -4.96,-13.93 -10.63,-20.79 -5.66,-6.87 -13.57,-13.72 -21.26,-18.56 -7.69,-4.85 -15.16,-7.7 -21.31,-9.17 -6.15,-1.47 -10.99,-1.57 -16.2,-1.33 -5.21,0.24 -10.8,0.81 -16.92,2.58 -6.12,1.77 -12.77,4.75 -18.65,9.28 -5.88,4.52 -11,10.59 -15.2,16.98 -4.21,6.39 -7.51,13.09 -9.59,19.68 -2.09,6.58 -2.97,13.06 -2.79,19.84 0.17,6.77 1.4,13.85 2.87,20.08 1.47,6.23 3.17,11.62 3.52,16.04 0.36,4.41 -0.63,7.86 -2.66,9.95 -2.03,2.08 -5.09,2.8 -9.08,3.33 -3.98,0.52 -8.87,0.84 -166.57,1.06 -157.69,0.22 -468.2,0.34 -623.45,0.4 -155.25,0.06 -155.25,0.06 -155.25,0.06 0,0 0,0 0,78.46 0,78.46 0,235.38 0,313.84 0,78.46 0,78.46 0,78.46 0,0 0,0 512.39,0 512.39,0 1537.17,0 2156.3,0z"/>
   <path class="fil2" d="M8381.78 467.69c0,-108.42 0,-267.81 0,-347.5 0,-79.7 0,-79.7 0,-79.7 0,0 0,0 -1396.57,0 -1396.57,0 -4189.71,0 -5586.28,0 -1396.57,0 -1396.57,0 -1396.57,0 0,0 0,0 0,108.42 0,108.42 0,325.25 0,433.67 0,108.42 0,108.42 0,108.42 0,0 0,0 200.42,0 200.42,0 601.26,0 808.01,-0.06 206.75,-0.06 219.41,-0.18 228.18,-0.4 8.78,-0.22 13.67,-0.54 17.33,-0.49 3.66,0.06 6.07,0.5 8.23,-0.68 2.16,-1.19 4.08,-4.01 4.89,-6.77 0.82,-2.76 0.54,-5.48 -0.85,-10.82 -1.38,-5.34 -3.88,-13.32 -5.17,-19.26 -1.28,-5.95 -1.36,-9.86 -1.3,-14.39 0.07,-4.53 0.28,-9.67 1.68,-15.24 1.41,-5.57 3.99,-11.57 7.4,-17.32 3.41,-5.77 7.65,-11.28 12.06,-15.72 4.4,-4.44 8.97,-7.8 14.25,-10.71 5.29,-2.9 11.28,-5.34 17.74,-6.65 6.46,-1.31 13.38,-1.48 20.58,-0.39 7.19,1.08 14.65,3.42 21.82,7.16 7.17,3.74 14.06,8.89 19.42,14.34 5.37,5.45 9.23,11.22 11.9,16.79 2.67,5.57 4.16,10.95 4.96,17.19 0.8,6.24 0.91,13.34 -0.09,20.32 -1,6.98 -3.11,13.84 -4.9,19.97 -1.78,6.11 -3.25,11.49 -3.07,14.63 0.17,3.13 1.98,4.02 3.85,4.8 1.87,0.79 3.8,1.46 12.8,1.96 8.99,0.49 25.04,0.8 388.42,1.32 363.37,0.51 1074.06,1.24 1430.38,1.95 356.31,0.7 358.24,1.38 359.64,2.61 1.41,1.23 2.28,3.02 2.79,5.36 0.51,2.34 0.66,5.24 -0.29,9.2 -0.95,3.97 -2.98,9 -4.37,13.22 -1.4,4.22 -2.14,7.64 -2.54,12.29 -0.4,4.65 -0.46,10.53 -0.2,15.14 0.27,4.61 0.86,7.94 2.31,12.44 1.46,4.5 3.8,10.17 6.87,15.3 3.06,5.13 6.87,9.71 10.36,13.28 3.5,3.55 6.7,6.08 10.33,8.39 3.64,2.31 7.7,4.41 13.05,6.33 5.35,1.91 11.98,3.63 17.61,4.5 5.62,0.86 10.25,0.86 15.26,0.06 5.02,-0.8 10.42,-2.41 16.47,-5.44 6.05,-3.04 12.75,-7.51 17.89,-11.95 5.15,-4.44 8.73,-8.85 11.98,-14.12 3.26,-5.26 6.18,-11.38 8.1,-16.83 1.92,-5.45 2.83,-10.24 3.05,-15.26 0.23,-5.03 -0.24,-10.28 -1.27,-15.79 -1.02,-5.51 -2.61,-11.28 -4.02,-15.93 -1.41,-4.67 -2.65,-8.22 -2.93,-11.28 -0.27,-3.07 0.42,-5.65 1.47,-7.75 1.04,-2.09 2.43,-3.7 5.54,-4.37 3.11,-0.69 7.95,-0.44 234.32,-0.44 226.37,0 674.28,-0.25 898.44,-0.37 224.18,-0.12 224.61,-0.12 226.11,-1.1 1.5,-0.99 4.08,-2.95 5.68,-5.16 1.6,-2.21 2.23,-4.67 2.06,-7.29 -0.16,-2.62 -1.14,-5.41 -2.49,-9.7 -1.34,-4.29 -3.05,-10.07 -4.24,-16.04 -1.18,-5.97 -1.84,-12.13 -1.38,-18.83 0.47,-6.7 2.05,-13.95 4.1,-19.75 2.05,-5.82 4.56,-10.18 7.89,-14.51 3.33,-4.33 7.48,-8.6 12.97,-12.62 5.5,-4.02 12.33,-7.79 18.24,-10.29 5.92,-2.51 10.9,-3.78 16.05,-4.44 5.14,-0.67 10.47,-0.75 15.8,0.01 5.34,0.76 10.7,2.35 16.72,5.39 6.03,3.03 12.73,7.5 18.49,13.05 5.77,5.55 10.6,12.18 14.01,17.92 3.41,5.75 5.39,10.61 6.66,15.8 1.28,5.19 1.85,10.7 1.35,17.53 -0.5,6.84 -2.07,14.98 -3.71,21.43 -1.62,6.44 -3.3,11.17 -3.8,14.84 -0.49,3.65 0.2,6.23 1.3,8.33 1.1,2.09 2.6,3.7 4.45,4.28 1.84,0.58 4.03,0.14 446.37,0.85 442.34,0.72 1324.84,2.59 1766.57,3.07 441.74,0.48 442.71,-0.43 444.55,-0.16 1.84,0.26 4.58,1.71 6.25,3.66 1.69,1.95 2.32,4.41 1.89,7.62 -0.43,3.2 -1.91,7.15 -3.4,11.46 -1.49,4.31 -2.99,8.98 -3.94,13.7 -0.96,4.72 -1.38,9.49 -1.43,13.68 -0.05,4.19 0.26,7.81 1.2,12.39 0.94,4.59 2.52,10.14 4.44,14.82 1.92,4.67 4.18,8.45 7.3,12.41 3.12,3.96 7.08,8.09 10.85,11.36 3.78,3.25 7.37,5.64 11.43,7.78 4.07,2.14 8.61,4.03 13,5.44 4.39,1.42 8.63,2.36 12.9,2.88 4.28,0.52 8.6,0.62 13.13,0.1 4.54,-0.53 9.29,-1.67 13.37,-3.06 4.08,-1.41 7.48,-3.07 11.45,-5.56 3.97,-2.51 8.51,-5.84 12.5,-9.61 4,-3.78 7.45,-7.98 10.7,-13.24 3.26,-5.27 6.31,-11.59 8.28,-17.99 1.96,-6.4 2.84,-12.88 3.06,-17.9 0.23,-5.03 -0.2,-8.59 -1.22,-13.26 -1,-4.66 -2.58,-10.43 -3.97,-15.77 -1.38,-5.34 -2.57,-10.27 -2.85,-13.33 -0.27,-3.07 0.37,-4.29 1.66,-5.69 1.28,-1.41 3.2,-3.02 6.32,-3.69 3.11,-0.69 7.41,-0.44 73.26,-0.44 65.86,0 193.27,-0.25 256.98,-0.37 63.71,-0.12 63.71,-0.12 63.71,-0.12 0,0 0,0 0,-28.73 0,-28.72 0,-86.16 0,-194.58z"/>
   <g>
    <g>
     <path class="fil3" d="M4924.17 960.44c-1.23,-1.24 -1.85,-2.7 -1.85,-4.4l0 -149.55c0,-1.69 0.62,-3.16 1.85,-4.4 1.23,-1.23 2.7,-1.85 4.4,-1.85l36.58 0c4.32,0 7.64,2.09 9.95,6.25l33.57 55.56 33.57 -55.56c2.32,-4.16 5.63,-6.25 9.96,-6.25l36.57 0c1.7,0 3.16,0.62 4.4,1.85 1.23,1.24 1.85,2.71 1.85,4.4l0 149.55c0,1.7 -0.62,3.16 -1.85,4.4 -1.24,1.24 -2.7,1.85 -4.4,1.85l-41.9 0c-1.7,0 -3.17,-0.61 -4.4,-1.85 -1.23,-1.24 -1.85,-2.7 -1.85,-4.4l0 -63.43 -15.28 25c-1.08,1.7 -2.28,3.09 -3.59,4.17 -1.31,1.08 -2.97,1.62 -4.98,1.62l-16.2 0c-2.01,0 -3.67,-0.54 -4.98,-1.62 -1.31,-1.08 -2.51,-2.47 -3.59,-4.17l-15.28 -25 0 63.43c0,1.7 -0.61,3.16 -1.85,4.4 -1.24,1.24 -2.7,1.85 -4.4,1.85l-41.9 0c-1.7,0 -3.17,-0.61 -4.4,-1.85z"/>
     <path class="fil3" d="M5121.99 960.79c-1.01,-1 -1.5,-2.2 -1.5,-3.59 0,-0.62 0.07,-1.16 0.23,-1.62l51.62 -147.7c0.62,-2 1.78,-3.78 3.47,-5.33 1.7,-1.53 4.02,-2.31 6.95,-2.31l50.24 0c2.93,0 5.24,0.78 6.94,2.31 1.7,1.55 2.86,3.33 3.48,5.33l51.62 147.7c0.15,0.46 0.23,1 0.23,1.62 0,1.39 -0.5,2.59 -1.5,3.59 -1.01,1 -2.2,1.5 -3.59,1.5l-42.83 0c-4.63,0 -7.64,-1.93 -9.03,-5.78l-5.55 -15.28 -49.78 0 -5.55 15.28c-1.39,3.85 -4.4,5.78 -9.03,5.78l-42.83 0c-1.39,0 -2.59,-0.5 -3.59,-1.5zm72.81 -64.7l0 0 26.16 0 -13.2 -43.07 -12.96 43.07z"/>
     <path class="fil3" d="M5333.83 949.21c-13.73,-10.26 -21.06,-26.04 -21.99,-47.34 -0.15,-4.16 -0.23,-10.96 -0.23,-20.37 0,-9.57 0.08,-16.51 0.23,-20.84 0.93,-20.67 8.41,-36.3 22.46,-46.88 14.04,-10.57 32.41,-15.86 55.09,-15.86 13.9,0 26.67,2.09 38.32,6.26 11.65,4.16 21.14,10.69 28.48,19.56 7.33,8.87 11.07,20.02 11.22,33.45 0,1.39 -0.5,2.59 -1.5,3.59 -1.01,1 -2.2,1.5 -3.59,1.5l-47.23 0c-2.47,0 -4.28,-0.46 -5.44,-1.39 -1.15,-0.92 -2.2,-2.69 -3.12,-5.32 -1.7,-4.63 -3.94,-7.87 -6.72,-9.72 -2.77,-1.86 -6.33,-2.78 -10.65,-2.78 -5.4,0 -9.57,1.43 -12.5,4.28 -2.93,2.86 -4.48,7.68 -4.63,14.47 -0.15,4.17 -0.23,10.57 -0.23,19.22 0,8.64 0.08,15.2 0.23,19.67 0.15,6.8 1.7,11.62 4.63,14.47 2.93,2.86 7.1,4.28 12.5,4.28 8.8,0 14.59,-4.16 17.37,-12.5 0.77,-2.62 1.73,-4.39 2.89,-5.32 1.16,-0.93 3.05,-1.39 5.67,-1.39l47.23 0c1.39,0 2.58,0.5 3.59,1.51 1,1 1.5,2.2 1.5,3.59 -0.15,13.42 -3.89,24.58 -11.22,33.45 -7.34,8.87 -16.83,15.39 -28.48,19.56 -11.65,4.17 -24.42,6.25 -38.32,6.25 -23.3,0 -41.82,-5.13 -55.56,-15.4z"/>
     <path class="fil3" d="M5537.49 960.44c-1.24,-1.24 -1.85,-2.7 -1.85,-4.4l0 -106.03 -38.43 0c-1.7,0 -3.17,-0.61 -4.4,-1.85 -1.24,-1.23 -1.85,-2.7 -1.85,-4.4l0 -37.27c0,-1.69 0.61,-3.16 1.85,-4.4 1.23,-1.23 2.7,-1.85 4.4,-1.85l135.66 0c1.7,0 3.16,0.62 4.4,1.85 1.23,1.24 1.85,2.71 1.85,4.4l0 37.27c0,1.7 -0.62,3.17 -1.85,4.4 -1.24,1.24 -2.7,1.85 -4.4,1.85l-38.43 0 0 106.03c0,1.7 -0.62,3.16 -1.85,4.4 -1.24,1.24 -2.7,1.85 -4.4,1.85l-46.3 0c-1.7,0 -3.17,-0.61 -4.4,-1.85z"/>
     <path class="fil3" d="M5668.24 960.44c-1.23,-1.24 -1.85,-2.7 -1.85,-4.4l0 -149.55c0,-1.69 0.62,-3.16 1.85,-4.4 1.23,-1.23 2.7,-1.85 4.4,-1.85l118.76 0c1.7,0 3.17,0.62 4.4,1.85 1.24,1.24 1.85,2.71 1.85,4.4l0 32.64c0,1.7 -0.61,3.17 -1.85,4.4 -1.23,1.24 -2.7,1.85 -4.4,1.85l-69.45 0 0 14.59 64.36 0c1.7,0 3.16,0.62 4.4,1.85 1.23,1.24 1.85,2.7 1.85,4.4l0 30.1c0,1.7 -0.62,3.16 -1.85,4.39 -1.24,1.24 -2.7,1.86 -4.4,1.86l-64.36 0 0 14.58 71.31 0c1.69,0 3.16,0.62 4.39,1.85 1.24,1.24 1.86,2.7 1.86,4.4l0 32.64c0,1.7 -0.62,3.16 -1.86,4.4 -1.23,1.24 -2.7,1.85 -4.39,1.85l-120.62 0c-1.7,0 -3.17,-0.61 -4.4,-1.85z"/>
     <path class="fil3" d="M5834.81 960.44c-1.24,-1.24 -1.86,-2.7 -1.86,-4.4l0 -149.55c0,-1.69 0.62,-3.16 1.86,-4.4 1.23,-1.23 2.69,-1.85 4.39,-1.85l70.15 0c21.61,0 38.62,4.79 51.05,14.35 12.42,9.58 18.63,23.7 18.63,42.37 0,18.52 -6.17,32.3 -18.52,41.33 -12.35,9.02 -29.4,13.53 -51.16,13.53l-16.2 0 0 44.22c0,1.7 -0.62,3.16 -1.86,4.4 -1.23,1.24 -2.7,1.85 -4.39,1.85l-47.7 0c-1.7,0 -3.16,-0.61 -4.39,-1.85zm73.38 -91.44l0 0c2.78,0 5.25,-1.04 7.41,-3.13 2.16,-2.08 3.24,-5.21 3.24,-9.37 0,-3.55 -0.85,-6.64 -2.54,-9.26 -1.7,-2.62 -4.4,-3.94 -8.11,-3.94l-16.2 0 0 25.7 16.2 0z"/>
     <path class="fil3" d="M6010.36 902.1c-1.24,-1.23 -1.86,-2.69 -1.86,-4.39l0 -32.88c0,-1.69 0.62,-3.16 1.86,-4.4 1.23,-1.23 2.69,-1.85 4.39,-1.85l75.24 0c1.7,0 3.17,0.62 4.4,1.85 1.23,1.24 1.86,2.71 1.86,4.4l0 32.88c0,1.7 -0.63,3.16 -1.86,4.39 -1.23,1.24 -2.7,1.86 -4.4,1.86l-75.24 0c-1.7,0 -3.16,-0.62 -4.39,-1.86z"/>
     <path class="fil3" d="M6152.84 949.21c-13.73,-10.26 -21.06,-26.04 -22,-47.34 -0.15,-4.16 -0.22,-10.96 -0.22,-20.37 0,-9.57 0.07,-16.51 0.22,-20.84 0.94,-20.67 8.42,-36.3 22.46,-46.88 14.05,-10.57 32.42,-15.86 55.1,-15.86 13.9,0 26.66,2.09 38.32,6.26 11.64,4.16 21.14,10.69 28.47,19.56 7.33,8.87 11.08,20.02 11.23,33.45 0,1.39 -0.5,2.59 -1.5,3.59 -1.01,1 -2.21,1.5 -3.59,1.5l-47.23 0c-2.47,0 -4.28,-0.46 -5.44,-1.39 -1.16,-0.92 -2.2,-2.69 -3.13,-5.32 -1.7,-4.63 -3.93,-7.87 -6.71,-9.72 -2.78,-1.86 -6.33,-2.78 -10.65,-2.78 -5.4,0 -9.57,1.43 -12.5,4.28 -2.94,2.86 -4.48,7.68 -4.63,14.47 -0.15,4.17 -0.24,10.57 -0.24,19.22 0,8.64 0.09,15.2 0.24,19.67 0.15,6.8 1.69,11.62 4.63,14.47 2.93,2.86 7.1,4.28 12.5,4.28 8.8,0 14.59,-4.16 17.36,-12.5 0.78,-2.62 1.74,-4.39 2.9,-5.32 1.16,-0.93 3.04,-1.39 5.67,-1.39l47.23 0c1.38,0 2.58,0.5 3.59,1.51 1,1 1.5,2.2 1.5,3.59 -0.15,13.42 -3.9,24.58 -11.23,33.45 -7.33,8.87 -16.83,15.39 -28.47,19.56 -11.66,4.17 -24.42,6.25 -38.32,6.25 -23.3,0 -41.82,-5.13 -55.56,-15.4z"/>
     <path class="fil3" d="M6303.5 960.79c-1,-1 -1.5,-2.2 -1.5,-3.59 0,-0.62 0.07,-1.16 0.23,-1.62l51.62 -147.7c0.62,-2 1.78,-3.78 3.48,-5.33 1.7,-1.53 4.01,-2.31 6.94,-2.31l50.24 0c2.93,0 5.25,0.78 6.94,2.31 1.7,1.55 2.86,3.33 3.48,5.33l51.62 147.7c0.15,0.46 0.24,1 0.24,1.62 0,1.39 -0.51,2.59 -1.51,3.59 -1.01,1 -2.2,1.5 -3.59,1.5l-42.82 0c-4.64,0 -7.64,-1.93 -9.04,-5.78l-5.56 -15.28 -49.76 0 -5.56 15.28c-1.39,3.85 -4.4,5.78 -9.03,5.78l-42.83 0c-1.39,0 -2.59,-0.5 -3.59,-1.5zm72.81 -64.7l0 0 26.16 0 -13.2 -43.07 -12.96 43.07z"/>
     <path class="fil3" d="M6504.09 960.56c-1.23,-1.16 -1.84,-2.67 -1.84,-4.52l0 -149.55c0,-1.69 0.61,-3.16 1.84,-4.4 1.24,-1.23 2.71,-1.85 4.4,-1.85l45.38 0c1.7,0 3.16,0.62 4.4,1.85 1.23,1.24 1.85,2.71 1.85,4.4l0 48.62 37.5 0 0 -48.62c0,-1.69 0.62,-3.16 1.86,-4.4 1.23,-1.23 2.69,-1.85 4.4,-1.85l45.37 0c1.69,0 3.16,0.62 4.4,1.85 1.23,1.24 1.85,2.71 1.85,4.4l0 149.55c0,1.7 -0.62,3.16 -1.85,4.4 -1.24,1.24 -2.71,1.85 -4.4,1.85l-45.37 0c-1.71,0 -3.17,-0.61 -4.4,-1.85 -1.24,-1.24 -1.86,-2.7 -1.86,-4.4l0 -50 -37.5 0 0 50c0,1.7 -0.62,3.16 -1.85,4.4 -1.24,1.24 -2.7,1.85 -4.4,1.85l-45.38 0c-1.69,0 -3.16,-0.57 -4.4,-1.73z"/>
     <path class="fil3" d="M6729.31 960.44c-1.25,-1.24 -1.86,-2.7 -1.86,-4.4l0 -106.03 -38.43 0c-1.7,0 -3.17,-0.61 -4.4,-1.85 -1.24,-1.23 -1.85,-2.7 -1.85,-4.4l0 -37.27c0,-1.69 0.61,-3.16 1.85,-4.4 1.23,-1.23 2.7,-1.85 4.4,-1.85l135.66 0c1.7,0 3.16,0.62 4.4,1.85 1.24,1.24 1.85,2.71 1.85,4.4l0 37.27c0,1.7 -0.61,3.17 -1.85,4.4 -1.24,1.24 -2.7,1.85 -4.4,1.85l-38.43 0 0 106.03c0,1.7 -0.61,3.16 -1.85,4.4 -1.24,1.24 -2.7,1.85 -4.39,1.85l-46.31 0c-1.7,0 -3.17,-0.61 -4.39,-1.85z"/>
     <path class="fil3" d="M6860.06 960.44c-1.24,-1.24 -1.85,-2.7 -1.85,-4.4l0 -149.55c0,-1.69 0.61,-3.16 1.85,-4.4 1.23,-1.23 2.7,-1.85 4.4,-1.85l118.76 0c1.7,0 3.16,0.62 4.4,1.85 1.24,1.24 1.85,2.71 1.85,4.4l0 32.64c0,1.7 -0.61,3.17 -1.85,4.4 -1.24,1.24 -2.7,1.85 -4.4,1.85l-69.45 0 0 14.59 64.36 0c1.69,0 3.16,0.62 4.4,1.85 1.23,1.24 1.85,2.7 1.85,4.4l0 30.1c0,1.7 -0.62,3.16 -1.85,4.39 -1.24,1.24 -2.71,1.86 -4.4,1.86l-64.36 0 0 14.58 71.3 0c1.69,0 3.16,0.62 4.4,1.85 1.23,1.24 1.85,2.7 1.85,4.4l0 32.64c0,1.7 -0.62,3.16 -1.85,4.4 -1.24,1.24 -2.71,1.85 -4.4,1.85l-120.61 0c-1.7,0 -3.17,-0.61 -4.4,-1.85z"/>
     <path class="fil3" d="M7016.26 960.79c-1.01,-1 -1.51,-2.2 -1.51,-3.59 0,-0.93 0.24,-1.77 0.7,-2.55l48.61 -75.23 -43.75 -71.54c-0.46,-0.93 -0.7,-1.77 -0.7,-2.55 0,-1.39 0.5,-2.58 1.51,-3.59 1,-1 2.19,-1.5 3.59,-1.5l50.23 0c4.32,0 7.56,1.93 9.73,5.79l16.2 28.24 17.59 -28.24c2.16,-3.86 5.4,-5.79 9.73,-5.79l47.92 0c1.39,0 2.59,0.5 3.58,1.5 1.01,1.01 1.51,2.2 1.51,3.59 0,0.93 -0.22,1.78 -0.7,2.55l-44.67 70.84 49.31 75.93c0.46,0.78 0.7,1.62 0.7,2.55 0,1.39 -0.51,2.59 -1.51,3.59 -1.01,1 -2.2,1.5 -3.59,1.5l-52.09 0c-4.17,0 -7.33,-1.77 -9.49,-5.32l-20.14 -31.02 -19.21 31.02c-2.17,3.55 -5.33,5.32 -9.5,5.32l-50.46 0c-1.4,0 -2.59,-0.5 -3.59,-1.5z"/>
     <path class="fil3" d="M7213.02 960.56c-1.23,-1.16 -1.84,-2.67 -1.84,-4.52l0 -149.55c0,-1.69 0.61,-3.16 1.84,-4.4 1.24,-1.23 2.71,-1.85 4.4,-1.85l45.38 0c1.69,0 3.16,0.62 4.4,1.85 1.23,1.24 1.85,2.71 1.85,4.4l0 48.62 37.5 0 0 -48.62c0,-1.69 0.62,-3.16 1.86,-4.4 1.23,-1.23 2.69,-1.85 4.4,-1.85l45.37 0c1.69,0 3.16,0.62 4.39,1.85 1.24,1.24 1.86,2.71 1.86,4.4l0 149.55c0,1.7 -0.62,3.16 -1.86,4.4 -1.23,1.24 -2.7,1.85 -4.39,1.85l-45.37 0c-1.71,0 -3.17,-0.61 -4.4,-1.85 -1.24,-1.24 -1.86,-2.7 -1.86,-4.4l0 -50 -37.5 0 0 50c0,1.7 -0.62,3.16 -1.85,4.4 -1.24,1.24 -2.71,1.85 -4.4,1.85l-45.38 0c-1.69,0 -3.16,-0.57 -4.4,-1.73z"/>
     <path class="fil3" d="M7403.09 960.44c-1.23,-1.24 -1.85,-2.7 -1.85,-4.4l0 -149.55c0,-1.69 0.62,-3.16 1.85,-4.4 1.23,-1.23 2.7,-1.85 4.4,-1.85l45.38 0c1.69,0 3.16,0.62 4.39,1.85 1.24,1.24 1.86,2.71 1.86,4.4l0 70.15 48.38 -71.08c2.16,-3.54 5.32,-5.32 9.5,-5.32l40.04 0c1.7,0 3.16,0.62 4.4,1.85 1.23,1.24 1.86,2.71 1.86,4.4l0 149.55c0,1.7 -0.63,3.16 -1.86,4.4 -1.24,1.24 -2.7,1.85 -4.4,1.85l-45.38 0c-1.69,0 -3.16,-0.61 -4.39,-1.85 -1.24,-1.24 -1.85,-2.7 -1.85,-4.4l0 -65.05 -48.39 65.98c-1.08,1.7 -2.31,3.01 -3.7,3.94 -1.39,0.92 -3.32,1.38 -5.79,1.38l-40.05 0c-1.7,0 -3.17,-0.61 -4.4,-1.85z"/>
     <path class="fil3" d="M7759.49 957.2c0,1.39 -0.49,2.59 -1.5,3.59 -1.01,1 -2.2,1.5 -3.59,1.5l-52.78 0c-2.63,0 -4.64,-0.53 -6.02,-1.62 -1.39,-1.07 -2.54,-2.31 -3.48,-3.7l-28.47 -50.93 -5.55 0 0 50c0,1.7 -0.62,3.16 -1.86,4.4 -1.23,1.24 -2.7,1.85 -4.4,1.85l-45.37 0c-1.7,0 -3.17,-0.57 -4.4,-1.73 -1.24,-1.16 -1.85,-2.67 -1.85,-4.52l0 -149.55c0,-1.69 0.61,-3.16 1.85,-4.4 1.23,-1.23 2.7,-1.85 4.4,-1.85l45.37 0c1.7,0 3.17,0.62 4.4,1.85 1.24,1.24 1.86,2.71 1.86,4.4l0 48.62 3.7 0 28.24 -49.78c1.86,-3.39 4.94,-5.09 9.26,-5.09l51.16 0c1.4,0 2.59,0.5 3.59,1.5 1.01,1.01 1.51,2.2 1.51,3.59 0,0.93 -0.23,1.78 -0.7,2.55l-41.66 69.92 45.6 76.85c0.46,0.63 0.69,1.47 0.69,2.55z"/>
    </g>
    <g>
     <path class="fil3" d="M4942.05 1099.37c-5.38,-2.96 -9.59,-7.06 -12.64,-12.3 -3.05,-5.24 -4.58,-11.1 -4.58,-17.6 0,-6.49 1.53,-12.36 4.58,-17.61 3.05,-5.24 7.28,-9.33 12.68,-12.29 5.41,-2.96 11.45,-4.44 18.14,-4.44 5.02,0 9.65,0.84 13.89,2.51 4.24,1.68 7.85,4.12 10.8,7.33l-4.53 4.53c-5.27,-5.33 -11.93,-8 -19.97,-8 -5.33,0 -10.19,1.22 -14.57,3.67 -4.37,2.43 -7.79,5.78 -10.27,10.02 -2.47,4.25 -3.71,9 -3.71,14.28 0,5.27 1.24,10.03 3.71,14.28 2.48,4.24 5.9,7.58 10.27,10.02 4.38,2.45 9.24,3.68 14.57,3.68 8.1,0 14.76,-2.71 19.97,-8.12l4.53 4.54c-2.95,3.22 -6.57,5.68 -10.85,7.38 -4.28,1.71 -8.92,2.55 -13.93,2.55 -6.7,0 -12.73,-1.47 -18.09,-4.43z"/>
     <polygon class="fil3" points="5055.67,1097.06 5055.67,1103.23 5007.93,1103.23 5007.93,1035.71 5054.23,1035.71 5054.23,1041.89 5015.06,1041.89 5015.06,1065.9 5049.98,1065.9 5049.98,1071.97 5015.06,1071.97 5015.06,1097.06 "/>
     <polygon class="fil3" points="5127.69,1041.89 5103.96,1041.89 5103.96,1103.23 5096.92,1103.23 5096.92,1041.89 5073.19,1041.89 5073.19,1035.71 5127.69,1035.71 "/>
     <path class="fil3" d="M5196.09 1065.22c4.21,3.61 6.32,8.88 6.32,15.83 0,7.26 -2.24,12.78 -6.7,16.54 -4.48,3.76 -10.92,5.64 -19.34,5.64l-26.82 0 0 -67.52 7.04 0 0 24.11 21.22 0c7.98,0 14.07,1.8 18.28,5.4zm-5.69 28.18l0 0c3.25,-2.77 4.87,-6.86 4.87,-12.26 0,-10.35 -6.37,-15.53 -19.1,-15.53l-19.58 0 0 31.93 19.58 0c6.24,0 10.98,-1.39 14.23,-4.14z"/>
     <polygon class="fil3" points="5332.73,1035.71 5332.73,1103.23 5325.88,1103.23 5325.88,1049.22 5299.35,1094.65 5295.98,1094.65 5269.45,1049.5 5269.45,1103.23 5262.6,1103.23 5262.6,1035.71 5268.48,1035.71 5297.81,1085.77 5326.84,1035.71 "/>
     <path class="fil3" d="M5407.83 1085.19l-37.62 0 -8.1 18.04 -7.43 0 30.87 -67.52 7.04 0 30.87 67.52 -7.53 0 -8.1 -18.04zm-2.6 -5.78l0 0 -16.21 -36.27 -16.21 36.27 32.42 0z"/>
     <polygon class="fil3" points="5488.43,1041.89 5452.45,1041.89 5452.55,1103.23 5445.51,1103.23 5445.51,1035.71 5488.43,1035.71 "/>
     <path class="fil3" d="M5544.91 1085.19l-37.62 0 -8.1 18.04 -7.43 0 30.87 -67.52 7.04 0 30.87 67.52 -7.53 0 -8.1 -18.04zm-2.6 -5.78l0 0 -16.21 -36.27 -16.21 36.27 32.42 0z"/>
     <path class="fil3" d="M5624.76 1073.91c2.54,2.89 3.81,6.36 3.81,10.41 0,3.92 -1.22,7.37 -3.67,10.33 -2.44,2.96 -5.69,5.22 -9.74,6.8 -4.05,1.57 -8.46,2.35 -13.21,2.35 -4.51,0 -8.92,-0.71 -13.27,-2.16 -4.33,-1.45 -8.24,-3.62 -11.72,-6.51l2.61 -5.12c2.96,2.51 6.33,4.43 10.13,5.74 3.79,1.32 7.62,1.98 11.47,1.98 3.67,0 7.05,-0.58 10.13,-1.73 3.09,-1.16 5.55,-2.82 7.38,-4.97 1.84,-2.16 2.75,-4.71 2.75,-7.67 0,-3.93 -1.54,-6.95 -4.63,-9.07 -3.08,-2.12 -7.43,-3.18 -13.02,-3.18l-14.47 0 0 -5.79 14.08 0c4.76,0 8.48,-1.01 11.15,-3.04 2.66,-2.02 4,-4.83 4,-8.44 0,-3.98 -1.7,-7.12 -5.12,-9.4 -3.41,-2.28 -7.68,-3.43 -12.83,-3.43 -3.21,0 -6.46,0.47 -9.73,1.41 -3.28,0.93 -6.41,2.32 -9.36,4.19l-2.42 -5.88c6.69,-3.99 13.93,-5.98 21.71,-5.98 4.57,0 8.74,0.73 12.54,2.21 3.79,1.48 6.8,3.61 9.02,6.37 2.22,2.77 3.33,6.02 3.33,9.74 0,3.61 -1,6.71 -3,9.31 -1.99,2.6 -4.78,4.45 -8.38,5.54 4.43,1.1 7.92,3.09 10.46,5.99z"/>
     <polygon class="fil3" points="5654.35,1035.71 5661.4,1035.71 5661.4,1091.65 5704.61,1035.71 5711.07,1035.71 5711.07,1103.23 5704.03,1103.23 5704.03,1047.38 5660.82,1103.23 5654.35,1103.23 "/>
     <polygon class="fil3" points="5797.51,1035.71 5797.51,1103.23 5790.46,1103.23 5790.46,1072.07 5748.22,1072.07 5748.22,1103.23 5741.08,1103.23 5741.08,1035.71 5748.22,1035.71 5748.22,1065.8 5790.46,1065.8 5790.46,1035.71 "/>
     <path class="fil3" d="M5839.92 1099.32c-5.43,-2.99 -9.68,-7.08 -12.73,-12.29 -3.05,-5.21 -4.58,-11.06 -4.58,-17.56 0,-6.49 1.53,-12.35 4.58,-17.56 3.05,-5.2 7.3,-9.31 12.73,-12.29 5.43,-2.99 11.5,-4.49 18.18,-4.49 6.69,0 12.72,1.48 18.09,4.44 5.37,2.96 9.6,7.05 12.69,12.29 3.08,5.25 4.62,11.12 4.62,17.61 0,6.5 -1.54,12.36 -4.62,17.6 -3.09,5.24 -7.32,9.34 -12.69,12.3 -5.37,2.96 -11.4,4.43 -18.09,4.43 -6.68,0 -12.75,-1.48 -18.18,-4.48zm32.65 -5.49l0 0c4.31,-2.41 7.69,-5.76 10.13,-10.03 2.44,-4.28 3.67,-9.06 3.67,-14.33 0,-5.28 -1.23,-10.05 -3.67,-14.33 -2.44,-4.27 -5.82,-7.62 -10.13,-10.02 -4.31,-2.41 -9.13,-3.62 -14.47,-3.62 -5.33,0 -10.17,1.21 -14.51,3.62 -4.34,2.4 -7.76,5.75 -10.23,10.02 -2.48,4.28 -3.71,9.05 -3.71,14.33 0,5.27 1.23,10.05 3.71,14.33 2.47,4.27 5.89,7.62 10.23,10.03 4.34,2.41 9.18,3.62 14.51,3.62 5.34,0 10.16,-1.21 14.47,-3.62z"/>
     <path class="fil3" d="M5969.3 1074.05c2.45,2.79 3.67,6.45 3.67,10.95 0,5.85 -2.08,10.35 -6.23,13.5 -4.14,3.16 -10.24,4.73 -18.27,4.73l-29.9 0 0 -67.52 28.06 0c7.2,0 12.83,1.48 16.88,4.43 4.05,2.96 6.08,7.24 6.08,12.84 0,3.79 -0.96,6.98 -2.89,9.59 -1.93,2.6 -4.63,4.55 -8.1,5.83 4.69,0.97 8.26,2.85 10.7,5.65zm-43.69 -7.77l0 0 20.64 0c5.21,0 9.21,-1.06 12.01,-3.18 2.79,-2.12 4.19,-5.21 4.19,-9.26 0,-4.05 -1.4,-7.13 -4.19,-9.26 -2.8,-2.12 -6.8,-3.18 -12.01,-3.18l-20.64 0 0 24.88zm40.32 18.23l0 0c0,-8.49 -5.83,-12.72 -17.46,-12.72l-22.86 0 0 25.75 22.86 0c11.63,0 17.46,-4.34 17.46,-13.03z"/>
     <path class="fil3" d="M6046.81 1099.37c-5.37,-2.96 -9.59,-7.06 -12.64,-12.3 -3.05,-5.24 -4.58,-11.1 -4.58,-17.6 0,-6.49 1.53,-12.36 4.58,-17.61 3.05,-5.24 7.28,-9.33 12.69,-12.29 5.4,-2.96 11.44,-4.44 18.13,-4.44 5.02,0 9.65,0.84 13.89,2.51 4.24,1.68 7.85,4.12 10.81,7.33l-4.54 4.53c-5.27,-5.33 -11.93,-8 -19.97,-8 -5.33,0 -10.19,1.22 -14.56,3.67 -4.38,2.43 -7.8,5.78 -10.28,10.02 -2.47,4.25 -3.71,9 -3.71,14.28 0,5.27 1.24,10.03 3.71,14.28 2.48,4.24 5.9,7.58 10.28,10.02 4.37,2.45 9.23,3.68 14.56,3.68 8.1,0 14.76,-2.71 19.97,-8.12l4.54 4.54c-2.96,3.22 -6.58,5.68 -10.86,7.38 -4.27,1.71 -8.92,2.55 -13.93,2.55 -6.7,0 -12.73,-1.47 -18.09,-4.43z"/>
     <path class="fil3" d="M6159.02 1085.19l-37.62 0 -8.1 18.04 -7.43 0 30.86 -67.52 7.05 0 30.87 67.52 -7.53 0 -8.1 -18.04zm-2.61 -5.78l0 0 -16.2 -36.27 -16.2 36.27 32.4 0z"/>
     <polygon class="fil3" points="6253.13,1035.71 6253.13,1103.23 6246.08,1103.23 6246.08,1072.07 6203.83,1072.07 6203.83,1103.23 6196.69,1103.23 6196.69,1035.71 6203.83,1035.71 6203.83,1065.8 6246.08,1065.8 6246.08,1035.71 "/>
     <polygon class="fil3" points="6329.38,1041.89 6305.65,1041.89 6305.65,1103.23 6298.62,1103.23 6298.62,1041.89 6274.89,1041.89 6274.89,1035.71 6329.38,1035.71 "/>
     <polygon class="fil3" points="6399,1097.06 6399,1103.23 6351.24,1103.23 6351.24,1035.71 6397.55,1035.71 6397.55,1041.89 6358.39,1041.89 6358.39,1065.9 6393.3,1065.9 6393.3,1071.97 6358.39,1071.97 6358.39,1097.06 "/>
     <polygon class="fil3" points="6427.69,1035.71 6446.89,1062.42 6465.98,1035.71 6474.37,1035.71 6451.32,1068.12 6476.21,1103.23 6467.82,1103.23 6446.89,1074.2 6425.95,1103.23 6417.75,1103.23 6442.54,1068.4 6419.49,1035.71 "/>
     <polygon class="fil3" points="6554.95,1035.71 6554.95,1103.23 6547.91,1103.23 6547.91,1072.07 6505.66,1072.07 6505.66,1103.23 6498.52,1103.23 6498.52,1035.71 6505.66,1035.71 6505.66,1065.8 6547.91,1065.8 6547.91,1035.71 "/>
     <polygon class="fil3" points="6584.96,1035.71 6592,1035.71 6592,1091.65 6635.21,1035.71 6641.67,1035.71 6641.67,1103.23 6634.64,1103.23 6634.64,1047.38 6591.42,1103.23 6584.96,1103.23 "/>
     <polygon class="fil3" points="6694.07,1072.27 6678.64,1072.27 6678.64,1103.23 6671.69,1103.23 6671.69,1035.71 6678.64,1035.71 6678.64,1065.99 6694.07,1065.99 6716.93,1035.71 6724.64,1035.71 6699.57,1068.51 6726.09,1103.23 6717.89,1103.23 "/>
     <polygon class="fil3" points="6748.34,1035.71 6755.39,1035.71 6755.39,1091.65 6798.6,1035.71 6805.06,1035.71 6805.06,1103.23 6798.03,1103.23 6798.03,1047.38 6754.81,1103.23 6748.34,1103.23 "/>
    </g>
    <path class="fil3" d="M4789.56 800.46c-15.79,-15.79 -24.65,-24.65 -40.44,-40.44l-161.75 0 -10.75 10.76 -18.92 18.92 -10.76 10.76 -40.44 40.43 -40.44 -40.43c-15.79,-15.79 -24.64,-24.65 -40.43,-40.44l-40.44 0 0 242.62 67.2 0c5.34,-5.34 8.33,-8.34 13.67,-13.67l0 -80.9 40.44 40.43 40.44 -40.43 0 13.7 0 67.2c5.34,5.33 8.33,8.33 13.67,13.67l67.2 0 121.31 0c15.79,-15.79 24.65,-24.65 40.44,-40.44l0 -50.08 -61.19 0c-6.49,7.81 -10.23,12.31 -16.8,20.22l-66.72 0c-6.57,-7.91 -10.31,-12.41 -16.8,-20.22l-0.24 0 0 -61.58 0.24 0c6.49,-7.81 10.23,-12.32 16.8,-20.22l66.72 0c6.57,7.9 10.31,12.41 16.8,20.22l61.19 0 0 -50.08z"/>
   </g>
   <g>
    <path class="fil4" d="M779.62 846l-207.37 154.11c-40.29,29.65 -97.01,21.23 -126.89,-18.98 -12.16,-16.39 -18,-35.51 -17.94,-54.45 0.09,-27.7 12.77,-55 36.7,-72.77l10.64 -7.91 77 0 -60.18 44.93c-9.58,7.14 -15.79,17.64 -17.52,29.47 -1.7,11.84 1.31,23.64 8.47,33.21 8.61,11.51 21.76,17.7 35.15,17.94 9.56,0.14 19.24,-2.71 27.47,-8.89l156.24 -116.66 78.23 0zm-284.29 77.47c0.9,-6.18 4.14,-11.6 9.1,-15.32l83.24 -62.15 77.81 0 -133.18 99.45c-10.28,7.68 -24.88,5.58 -32.56,-4.72l-0.01 0c-3.73,-4.99 -5.27,-11.1 -4.4,-17.26l0 0zm213.25 1.22l67.66 90.24 -59.32 0 -47.45 -61.02 39.11 -29.22zm-56.13 41.92l36.64 48.32 -61.29 0 -14.36 -19.19 39.01 -29.13z"/>
    <path class="fil4" d="M2920.58 854.69l0 40.65 41.34 -0.01 0.01 113.44 46.69 0 -0.03 -113.44 41.11 0 0 -40.64 -129.12 0zm-60.74 71.61l58.2 -71.61 -57.04 0 -40.43 57.75 0 -57.75 -46.67 0.01 0 154.07 46.67 0 0 -42.74 8.55 -11.54 34.67 54.28 56.81 0 -60.76 -82.47zm-106.71 43.67l-70.24 0 0 -19.67 68.64 0 0 -38.79 -68.64 0 0 -18 70.24 0 0 -38.81 -116.9 0 0.02 154.07 116.88 0 0 -38.8zm-184.66 38.41l52.89 0 -50.26 -154.09 -58.66 0 -50.29 154.09 52.93 0 26.68 -97.19 26.71 97.19zm-167.8 0.41l46.68 0 -0.02 -154.09 -148.54 0 0.01 154.09 46.64 0 0 -113.42 55.23 -0.02 0 113.44zm-218.29 -75.54l-27 -78.55 -64.48 0.01 0.04 154.08 46.66 0 -0.02 -97.24 34.42 97.24 20.8 0 34.41 -97.26 0 97.24 46.67 0 -0.02 -154.07 -64.44 0 -27.04 78.55zm-192.39 -81.07c47.59,0 84.31,32.34 84.31,79.71 0,47.32 -36.71,79.69 -84.31,79.69 -47.58,0 -84.32,-32.34 -84.32,-79.69 0,-47.38 36.73,-79.71 84.32,-79.71l0 0zm0 118.28c22.41,0 36.97,-17.11 36.97,-38.57 0,-21.51 -14.56,-38.58 -36.97,-38.58 -22.41,0 -36.95,17.07 -36.95,38.58 0,21.48 14.57,38.57 36.95,38.57zm-77.59 -115.75l-57.06 0 -40.41 57.78 0 -57.78 -46.68 0 0 154.1 46.68 0 0 -42.74 8.53 -11.56 34.66 54.3 56.82 0 -60.74 -82.47 58.2 -71.63zm-155.91 0.02l-55.21 0 -24.48 43.89 -24.93 -43.89 -54.77 0 48.06 75.09 -51.52 79 54.98 0 28.18 -47.13 28.19 47.13 54.99 0 -51.52 -79.24 48.03 -74.85zm-283.87 154.09l116.88 0 0 -38.82 -70.22 0 0 -19.63 68.61 0 0 -38.81 -68.62 0 0 -18.02 70.23 0 0 -38.81 -116.88 0 0 154.09zm-145.75 -113.41l41.34 0 0.01 113.41 46.68 0 -0.02 -113.41 41.12 0 0 -40.68 -129.13 0 0 40.68zm-63.28 13.85l-55.21 0 0 -54.51 -46.65 0 0 154.07 46.67 0 0 -58.89 55.19 -0.02 0 58.91 46.68 0 0 -154.07 -46.68 0 0 54.51zm-166.99 -54.49l56.84 154.05 -50.6 0 -5.99 -19.84 -59.13 0 -6.02 19.86 -50.58 0 56.81 -154.07 58.67 0zm-11.76 95.4l-17.56 -54.3 -17.56 54.3 35.12 0zm-99.33 16.4c-8.99,20.54 -29.57,45.07 -71.13,45.07 -47.13,-0.01 -83.63,-32.37 -83.63,-79.71 0,-47.59 36.49,-79.7 83.61,-79.7 41.58,-0.01 61.92,23.57 71.15,44.82l-40.18 18.69c-3.95,-12 -15.96,-22.38 -30.97,-22.38 -21.26,0 -36.27,17.07 -36.27,38.57 0,21.49 15.03,38.58 36.27,38.58 15.01,0 27.02,-10.4 30.97,-22.42l40.18 18.48z"/>
    <path class="fil5" d="M3206.1 876.16l-47.96 0 0 -24.51 123.67 0 0 24.51 -47.96 0 0 134.39 -27.75 0 0 -134.39zm184.24 103.88l-75 0 -11.63 30.51 -30.41 0 62.21 -158.9 34.67 0 62.19 158.9 -30.41 0 -11.62 -30.51zm-67.17 -24.51l59.35 0 -29.68 -80.34 -29.67 80.34zm126.58 -103.88l108.47 0 0 24.51 -80.73 0 0 134.39 -27.74 0 0 -158.9zm161.18 0l0 116.97 80.99 -116.97 28.47 0 0 158.9 -27.74 0 0 -120.05 -82.69 120.05 -26.77 0 0 -158.9 27.74 0zm133.1 134.4c17.07,0 30.87,-11.68 36.55,-83.68l4.08 -50.72 107.41 0 0 158.9 -27.75 0 0 -134.39 -55.98 0 -2.1 26.44c-8.07,100.09 -31.58,110.83 -62.21,110.83l0 -27.38z"/>
   </g>
   <g>
    <path class="fil6" d="M1201.13 198.34l-455.55 340.21c-88.5,65.46 -213.12,46.87 -278.74,-41.9 -26.71,-36.17 -39.56,-78.39 -39.42,-120.21 0.19,-61.14 28.05,-121.42 80.63,-160.65l23.37 -17.45 169.15 0 -132.2 99.18c-21.04,15.76 -34.68,38.93 -38.49,65.07 -3.74,26.12 2.88,52.18 18.6,73.31 18.93,25.41 47.82,39.07 77.24,39.61 20.98,0.31 42.25,-6 60.34,-19.64l343.23 -257.53 171.84 0zm-624.51 171.01c1.97,-13.63 9.09,-25.61 19.99,-33.81l182.85 -137.2 170.94 0 -292.58 219.53c-22.57,16.96 -54.66,12.34 -71.52,-10.41l-0.02 0c-8.19,-11.01 -11.59,-24.51 -9.66,-38.09l0 -0.02zm468.47 2.71l148.62 199.21 -130.32 0 -104.24 -134.71 85.94 -64.5zm-123.32 92.54l80.5 106.67 -134.65 0 -31.55 -42.35 85.7 -64.32z"/>
    <path class="fil6" d="M5904.45 198.28l0 89.76 90.8 -0.04 0.04 250.44 102.55 0 -0.05 -250.44 90.31 0 0 -89.72 -283.65 0zm-133.44 158.11l127.85 -158.11 -125.31 0 -88.81 127.49 0 -127.49 -102.53 0.02 0 340.14 102.53 0 0 -94.35 18.78 -25.47 76.16 119.82 124.8 0 -133.47 -182.05zm-234.42 96.4l-154.31 0 0 -43.41 150.78 0 0 -85.65 -150.78 0 0 -39.75 154.31 0 0 -85.68 -256.82 0 0.05 340.16 256.77 0 0 -85.67zm-405.66 84.79l116.19 0 -110.43 -340.18 -128.87 0 -110.47 340.18 116.27 0 58.61 -214.55 58.7 214.55zm-368.64 0.92l102.55 0 -0.05 -340.2 -326.32 0 0.04 340.2 102.46 0 0 -250.4 121.32 -0.04 0 250.44zm-479.54 -166.77l-59.31 -173.43 -141.65 0.04 0.08 340.16 102.51 0 -0.05 -214.68 75.62 214.68 45.7 0 75.59 -214.73 0 214.69 102.53 0 -0.06 -340.16 -141.56 0 -59.4 173.43zm-422.65 -178.98c104.55,0 185.23,71.4 185.23,175.96 0,104.49 -80.66,175.95 -185.23,175.95 -104.52,0 -185.24,-71.4 -185.24,-175.95 0.02,-104.6 80.69,-175.96 185.24,-175.96l0 0zm0 261.13c49.24,0 81.23,-37.78 81.23,-85.17 0,-47.47 -31.99,-85.17 -81.23,-85.17 -49.22,0 -81.18,37.7 -81.18,85.17 0,47.43 32.01,85.17 81.18,85.17zm-170.44 -255.54l-125.36 0 -88.78 127.55 0 -127.55 -102.54 0 0 340.21 102.54 0 0 -94.36 18.75 -25.52 76.14 119.88 124.83 0 -133.45 -182.08 127.87 -158.13zm-342.51 0.03l-121.29 0 -53.77 96.89 -54.78 -96.89 -120.32 0 105.59 165.77 -113.19 174.42 120.78 0 61.92 -104.05 61.92 104.05 120.81 0 -113.2 -174.93 105.53 -165.26zm-623.62 340.19l256.78 0 0 -85.71 -154.26 0 0 -43.32 150.71 0 0 -85.69 -150.74 0 0 -39.78 154.29 0 0 -85.69 -256.78 0 0 340.19zm-320.17 -250.38l90.81 0 0.03 250.38 102.53 0 -0.04 -250.38 90.34 0 0 -89.81 -283.67 0 0 89.81zm-139.02 30.59l-121.29 0 0 -120.36 -102.48 0 0 340.15 102.53 0 0 -130.01 121.24 -0.05 0 130.06 102.54 0 0 -340.15 -102.54 0 0 120.36zm-366.85 -120.31l124.86 340.1 -111.15 0 -13.17 -43.8 -129.9 0 -13.21 43.85 -111.12 0 124.8 -340.15 128.89 0zm-25.84 210.61l-38.57 -119.87 -38.57 119.87 77.14 0zm-218.21 36.21c-19.74,45.36 -64.96,99.51 -156.25,99.51 -103.53,-0.03 -183.73,-71.46 -183.73,-175.98 0,-105.06 80.16,-175.95 183.68,-175.95 91.34,-0.02 136.03,52.02 156.3,98.94l-88.27 41.26c-8.66,-26.49 -35.06,-49.4 -68.03,-49.4 -46.7,0 -79.69,37.69 -79.69,85.15 0,47.43 33.03,85.17 79.69,85.17 32.97,0 59.37,-22.96 68.03,-49.49l88.27 40.79z"/>
    <path class="fil3" d="M6526.65 546.27c58.06,0 84.04,-29.19 104.93,-70.13l141.59 -277.44 -67.74 0 -93.72 199.12 -93.72 -199.12 -67.75 0 127.86 250.81c-16.32,31.75 -28.03,43.52 -55.53,43.52 -16.3,0 -32.1,-8.7 -44.32,-19.45l-21.39 49.14c10.7,11.26 39.22,23.55 69.79,23.55zm343.3 -6.14l0 -127.47 89.66 0c70.8,0 111.04,-49.13 111.04,-106.99 0,-57.84 -39.73,-106.97 -111.04,-106.97l-149.25 0 0 341.43 59.59 0zm81.51 -180.19l-81.51 0 0 -108.53 81.51 0c33.62,0 58.06,21.5 58.06,54.26 0,32.77 -24.44,54.27 -58.06,54.27zm474.21 180.19l-133.45 -341.43 -74.37 0 -133.45 341.43 67.74 0 24.96 -65.53 155.87 0 24.96 65.53 67.74 0zm-109.51 -118.25l-122.25 0 61.12 -162.79 61.13 162.79zm124.8 124.39c65.7,0 110.01,-23.04 126.32,-167.91l14.26 -126.95 117.66 0 0 288.72 59.6 0 0 -341.43 -230.74 0 -19.86 175.57c-11.73,100.84 -30.57,118.76 -67.24,118.76l0 53.24z"/>
   </g>
  </g>
 </g>
</svg>
