<?xml version="1.0" encoding="UTF-8"?>
<!DOCTYPE svg PUBLIC "-//W3C//DTD SVG 1.1//EN" "http://www.w3.org/Graphics/SVG/1.1/DTD/svg11.dtd">
<!-- Creator: CorelDRAW -->
<svg xmlns="http://www.w3.org/2000/svg" xml:space="preserve" width="5mm" height="5.2mm" version="1.1" style="shape-rendering:geometricPrecision; text-rendering:geometricPrecision; image-rendering:optimizeQuality; fill-rule:evenodd; clip-rule:evenodd"
viewBox="0 0 500 520"
 xmlns:xlink="http://www.w3.org/1999/xlink"
 xmlns:xodm="http://www.corel.com/coreldraw/odm/2003">
 <defs>
  <style type="text/css">
   <![CDATA[
    .str0 {stroke:#254776;stroke-width:10;stroke-miterlimit:22.9256}
    .fil0 {fill:#FEFEFE}
   ]]>
  </style>
 </defs>
 <g id="Слой_x0020_1">
  <metadata id="CorelCorpID_0Corel-Layer"/>
  <path class="fil0 str0" d="M41.23 277.64c-4.92,-2 -12.71,-5.5 -16.99,-8.67 -4.28,-3.16 -5.06,-5.98 -5.06,-8.9 0,-2.93 0.78,-5.94 2.73,-9.35 1.94,-3.41 5.06,-7.2 7.54,-10.12 2.48,-2.93 4.33,-4.97 5.64,-6.28 1.32,-1.32 2.1,-1.9 4.38,-6.09 2.29,-4.18 6.09,-11.97 11.19,-17.86 5.11,-5.89 11.54,-9.88 17.47,-12.56 5.94,-2.68 11.39,-4.04 17.62,-4.14 6.23,-0.1 13.23,1.07 19.75,2.68 6.52,1.61 12.56,3.65 19.61,9.2 7.06,5.55 15.13,14.6 21.8,22.1 6.67,7.49 11.92,13.43 16.45,17.33 4.52,3.89 8.32,5.74 10.75,6.71 2.43,0.98 3.51,1.07 4.53,0.49 1.02,-0.58 1.99,-1.85 3.79,-4.87 1.8,-3.02 4.43,-7.79 6.72,-14.65 2.28,-6.86 4.23,-15.82 5.69,-25.26 1.46,-9.44 2.43,-19.37 3.02,-28.62 0.58,-9.25 0.78,-17.82 0.97,-23.32 0.2,-5.5 0.39,-7.93 1.51,-11.63 1.12,-3.7 3.16,-8.67 6.47,-14.51 3.31,-5.84 7.88,-12.55 15.47,-21.22 7.6,-8.66 18.2,-19.27 30.37,-29.84 12.16,-10.56 25.88,-21.07 39.02,-30.27 13.14,-9.2 25.69,-17.09 35.57,-23.42 9.88,-6.32 17.08,-11.09 22.38,-13.28 5.31,-2.19 8.71,-1.8 11.54,-0.59 2.82,1.22 5.06,3.26 7.54,10.22 2.48,6.96 5.21,18.84 7.01,28.97 1.8,10.12 2.67,18.49 2.53,25.26 -0.15,6.76 -1.32,11.92 -2.49,16.16 -1.16,4.23 -2.33,7.54 -2.62,9.2 -0.3,1.65 0.29,1.65 7.73,-2 7.45,-3.65 21.75,-10.95 34.84,-17.81 13.09,-6.87 24.96,-13.29 31.87,-16.99 6.91,-3.7 8.86,-4.67 10.56,-5.35 1.71,-0.69 3.17,-1.08 4.92,-0.93 1.75,0.15 3.79,0.83 5.35,2.14 1.56,1.32 2.63,3.26 3.46,5.89 0.82,2.63 1.41,5.94 0.53,16.31 -0.88,10.37 -3.21,27.79 -6.33,44.05 -3.11,16.26 -7,31.35 -11.28,45.36 -4.29,14.02 -8.96,26.97 -14.84,39.63 -5.89,12.65 -13,25.02 -19.86,35.48 -6.86,10.47 -13.48,19.03 -21.7,28.18 -8.22,9.15 -18.05,18.89 -27.39,26.92 -9.35,8.03 -18.2,14.36 -26.52,19.42 -8.32,5.06 -16.11,8.86 -21.22,11.2 -5.11,2.33 -7.54,3.21 -9.24,3.84 -1.71,0.64 -2.68,1.03 -3.36,1.32 -0.68,0.29 -1.07,0.48 -0.97,1.17 0.09,0.68 0.68,1.84 4.28,5.79 3.6,3.94 10.22,10.66 20.14,17.62 9.93,6.96 23.16,14.16 39.12,19.71 15.96,5.55 34.65,9.44 45.94,11.49 11.29,2.04 15.18,2.24 17.9,2.48 2.73,0.24 4.29,0.54 5.55,1.02 1.27,0.49 2.24,1.17 3.21,2 0.98,0.83 1.95,1.8 3.21,4.82 1.27,3.02 2.83,8.08 3.6,14.36 0.78,6.28 0.78,13.77 0.54,19.32 -0.24,5.55 -0.73,9.15 -2.19,12.75 -1.46,3.61 -3.89,7.21 -6.23,10.18 -2.33,2.97 -4.57,5.3 -6.32,6.62 -1.76,1.31 -3.02,1.6 -3.7,2.04 -0.68,0.44 -0.78,1.02 -1.8,3.85 -1.02,2.82 -2.97,7.88 -5.31,12.31 -2.33,4.43 -5.06,8.23 -8.66,11.25 -3.6,3.01 -8.07,5.25 -12.16,6.71 -4.09,1.46 -7.79,2.14 -10.51,2.24 -2.73,0.1 -4.48,-0.39 -5.5,-0.39 -1.02,0 -1.31,0.49 -3.02,1.8 -1.7,1.32 -4.81,3.46 -8.76,5.21 -3.94,1.75 -8.71,3.12 -15.08,3.55 -6.37,0.44 -14.35,-0.04 -22.04,-1.75 -7.69,-1.7 -15.09,-4.62 -19.66,-6.86 -4.57,-2.24 -6.33,-3.8 -7.4,-6.43 -1.07,-2.62 -1.46,-6.32 -3.01,-11.63 -1.56,-5.3 -4.29,-12.22 -6.28,-17.62 -2,-5.4 -3.26,-9.3 -6.57,-14.26 -3.31,-4.97 -8.66,-11 -13.19,-15.24 -4.52,-4.23 -8.22,-6.67 -12.4,-8.9 -4.19,-2.24 -8.86,-4.29 -13.09,-5.7 -4.24,-1.41 -8.03,-2.19 -12.95,-2.87 -4.91,-0.68 -10.95,-1.27 -15.76,-1.32 -4.82,-0.04 -8.42,0.44 -12.65,0.83 -4.24,0.39 -9.1,0.68 -13.48,0.59 -4.38,-0.1 -8.27,-0.59 -14.7,-2.1 -6.42,-1.51 -15.37,-4.04 -23.45,-7.3 -8.08,-3.26 -15.28,-7.25 -22.72,-12.56 -7.45,-5.3 -15.14,-11.92 -21.46,-18.49 -6.33,-6.57 -11.29,-13.1 -15.43,-18.79 -4.13,-5.7 -7.44,-10.56 -10.99,-16.6 -3.56,-6.04 -7.35,-13.24 -10.71,-19.71 -3.36,-6.48 -6.28,-12.22 -10.02,-18.26 -3.75,-6.03 -8.32,-12.36 -12.75,-17.32 -4.43,-4.97 -8.71,-8.57 -11.87,-10.62 -3.17,-2.04 -5.21,-2.53 -10.12,-4.52z"/>
 </g>
</svg>
