<?xml version="1.0" encoding="UTF-8"?>
<!DOCTYPE svg PUBLIC "-//W3C//DTD SVG 1.1//EN" "http://www.w3.org/Graphics/SVG/1.1/DTD/svg11.dtd">
<!-- Creator: CorelDRAW -->
<svg xmlns="http://www.w3.org/2000/svg" xml:space="preserve" width="5mm" height="5.2mm" version="1.1" style="shape-rendering:geometricPrecision; text-rendering:geometricPrecision; image-rendering:optimizeQuality; fill-rule:evenodd; clip-rule:evenodd"
viewBox="0 0 500 520"
 xmlns:xlink="http://www.w3.org/1999/xlink"
 xmlns:xodm="http://www.corel.com/coreldraw/odm/2003">
 <defs>
  <style type="text/css">
   <![CDATA[
    .str0 {stroke:#254776;stroke-width:10;stroke-miterlimit:22.9256}
    .fil0 {fill:#FEFEFE}
   ]]>
  </style>
 </defs>
 <g id="Слой_x0020_1">
  <metadata id="CorelCorpID_0Corel-Layer"/>
  <g id="_1747592402496">
   <path class="fil0 str0" d="M325.47 189.35c-2.7,0.31 -8.4,0.26 -11.99,0.15 -3.6,-0.1 -5.09,-0.25 -8.02,-1.92 -2.93,-1.67 -7.29,-4.86 -13.51,-10.1 -6.21,-5.24 -14.28,-12.54 -19.69,-18.11 -5.42,-5.58 -8.2,-9.43 -11.15,-12.59 -2.95,-3.16 -6.09,-5.63 -8.86,-7.22 -2.77,-1.59 -5.19,-2.31 -9.27,-2.47 -4.09,-0.15 -9.84,0.26 -13.64,0.7 -3.8,0.43 -5.65,0.9 -6.6,0.97 -0.95,0.08 -1,-0.23 -0.26,-2.33 0.75,-2.11 2.29,-6.02 5.5,-13.93 3.21,-7.91 8.09,-19.83 11.79,-28.7 3.7,-8.86 6.21,-14.66 7.96,-18.88 1.75,-4.21 2.72,-6.83 3.34,-8.27 0.61,-1.44 0.87,-1.7 1.23,-1.82 0.36,-0.13 0.82,-0.13 3.57,-0.13 2.75,0 7.78,0 14.82,-1 7.04,-1.01 16.08,-3.01 24.58,-4.94 8.5,-1.92 16.46,-3.77 23.26,-5.19 6.81,-1.41 12.46,-2.39 18.24,-2.87 5.78,-0.49 11.68,-0.49 16.95,-0.21 5.26,0.28 9.89,0.85 17.87,1.8 7.99,0.95 19.34,2.29 26.89,3.21 7.55,0.92 11.3,1.44 13.87,1.9 2.57,0.46 3.96,0.87 5.06,1.93 1.11,1.05 1.93,2.75 2.29,4.21 0.36,1.47 0.25,2.7 -0.29,3.78 -0.54,1.08 -1.51,2 -2.56,2.75 -1.06,0.74 -2.19,1.31 -4.22,1.62 -2.02,0.3 -4.95,0.35 -8.5,0.35 -3.54,0 -7.7,-0.05 -10.27,0.34 -2.57,0.38 -3.54,1.21 -4.13,2.23 -0.6,1.03 -0.8,2.26 -0.67,3.32 0.13,1.05 0.59,1.92 1.54,2.62 0.95,0.69 2.39,1.21 6.96,1.36 4.57,0.15 12.27,-0.05 17.18,0.1 4.91,0.16 7.01,0.67 8.86,1.44 1.85,0.77 3.44,1.8 4.52,3.11 1.08,1.31 1.64,2.9 1.88,4.68 0.23,1.77 0.12,3.72 -0.78,5.24 -0.89,1.51 -2.59,2.59 -4.46,3.39 -1.88,0.79 -3.93,1.31 -6.35,1.62 -2.41,0.3 -5.19,0.41 -8.52,0.28 -3.34,-0.13 -7.25,-0.49 -11,-0.62 -3.75,-0.13 -7.34,-0.02 -9.5,0.57 -2.16,0.59 -2.87,1.67 -2.95,2.82 -0.08,1.16 0.49,2.39 1.54,3.27 1.05,0.87 2.59,1.38 8.24,1.67 5.65,0.28 15.41,0.33 21.47,0.79 6.06,0.46 8.43,1.34 10.22,2.29 1.8,0.95 3.04,1.98 3.96,3.24 0.92,1.25 1.54,2.74 1.87,4.18 0.34,1.44 0.39,2.83 -0.18,4.32 -0.56,1.49 -1.74,3.08 -3.8,4.21 -2.05,1.13 -4.98,1.8 -10.55,1.98 -5.57,0.18 -13.79,-0.13 -19.57,-0.41 -5.78,-0.28 -9.12,-0.54 -11.3,-0.26 -2.18,0.29 -3.21,1.11 -3.7,2.32 -0.49,1.2 -0.44,2.8 -0.05,3.77 0.38,0.98 1.1,1.34 6.65,1.75 5.55,0.41 15.92,0.87 22.24,1.26 6.32,0.38 8.58,0.69 10.17,1.62 1.59,0.92 2.52,2.46 3.11,4.29 0.59,1.82 0.85,3.93 0.69,5.88 -0.15,1.95 -0.72,3.75 -2.13,5.34 -1.41,1.6 -3.67,2.98 -5.73,3.93 -2.05,0.95 -3.9,1.47 -10.96,1.37 -7.07,-0.11 -19.34,-0.83 -30.28,-0.88 -10.94,-0.05 -20.55,0.57 -26.99,1.16 -6.45,0.59 -9.74,1.15 -13.36,1.39 -3.62,0.23 -7.57,0.12 -10.55,0.54 -2.98,0.41 -4.99,1.33 -6.14,2.2 -1.16,0.88 -1.47,1.7 -1.03,4.01 0.44,2.31 1.62,6.12 2.95,9.35 1.34,3.24 2.83,5.91 3.73,7.58 0.9,1.67 1.21,2.34 -1.49,2.65z"/>
   <path class="fil0 str0" d="M145.85 222.98c1.88,-3.93 5.42,-11.28 8.55,-16.63 3.14,-5.34 5.86,-8.68 9.45,-11.5 3.6,-2.83 8.07,-5.14 14.64,-7.84 6.58,-2.7 15.26,-5.78 23.5,-9.09 8.25,-3.32 16.05,-6.86 20.78,-9.36 4.72,-2.49 6.37,-3.93 8.14,-6.7 1.77,-2.78 3.67,-6.89 4.78,-9.66 1.1,-2.78 1.41,-4.21 1.2,-4.93 -0.2,-0.72 -0.92,-0.72 -3.39,-0.47 -2.46,0.26 -6.67,0.77 -10.06,1.01 -3.39,0.23 -5.96,0.18 -7.63,-0.24 -1.67,-0.41 -2.44,-1.18 -2.85,-2.38 -0.41,-1.21 -0.46,-2.86 1.1,-7.61 1.57,-4.75 4.75,-12.61 9.04,-23.17 4.29,-10.56 9.69,-23.82 14.26,-34.51 4.57,-10.68 8.32,-18.8 10.32,-23.94 2,-5.14 2.26,-7.3 2.03,-9.53 -0.23,-2.24 -0.95,-4.55 -2.23,-6.37 -1.29,-1.83 -3.14,-3.16 -4.76,-3.86 -1.61,-0.69 -3,-0.74 -4.77,-0.12 -1.77,0.61 -3.93,1.9 -6.32,4.65 -2.39,2.75 -5.01,6.96 -7.17,11.07 -2.15,4.11 -3.85,8.12 -5.24,11.35 -1.38,3.24 -2.46,5.71 -3.44,7.2 -0.97,1.49 -1.85,2 -2.87,2.03 -1.03,0.02 -2.21,-0.44 -2.96,-1.31 -0.74,-0.88 -1.05,-2.16 -0.72,-3.93 0.34,-1.78 1.31,-4.04 3.27,-8.25 1.95,-4.21 4.88,-10.38 7.32,-15.21 2.44,-4.83 4.39,-8.32 5.47,-10.74 1.07,-2.41 1.28,-3.75 1.1,-5.29 -0.18,-1.54 -0.74,-3.29 -1.85,-4.6 -1.1,-1.31 -2.75,-2.18 -4.6,-2.65 -1.85,-0.46 -3.9,-0.51 -6.01,0.16 -2.1,0.67 -4.26,2.05 -6.31,4.31 -2.06,2.27 -4.01,5.4 -6.32,10 -2.31,4.6 -4.98,10.66 -6.99,14.51 -2,3.86 -3.34,5.5 -4.77,6.32 -1.44,0.83 -2.98,0.83 -3.73,0.26 -0.74,-0.56 -0.69,-1.69 -0.2,-3.65 0.49,-1.95 1.41,-4.72 3.44,-8.94 2.03,-4.21 5.16,-9.86 6.96,-14.05 1.8,-4.19 2.26,-6.91 2.16,-9.25 -0.11,-2.34 -0.77,-4.29 -1.57,-5.73 -0.8,-1.44 -1.72,-2.36 -3.16,-3 -1.44,-0.65 -3.39,-1.01 -4.91,-0.88 -1.51,0.13 -2.59,0.75 -3.92,1.72 -1.34,0.98 -2.93,2.32 -5.19,6.17 -2.26,3.85 -5.19,10.22 -7.32,14.64 -2.13,4.42 -3.47,6.89 -4.7,8.35 -1.23,1.47 -2.36,1.93 -3.47,2.03 -1.1,0.11 -2.18,-0.15 -2.9,-1 -0.72,-0.85 -1.08,-2.29 -0.77,-3.9 0.31,-1.62 1.28,-3.42 2.62,-6.71 1.33,-3.29 3.03,-8.07 3.93,-11.41 0.9,-3.34 1,-5.24 0.74,-6.95 -0.25,-1.72 -0.87,-3.25 -2.33,-4.15 -1.47,-0.9 -3.78,-1.17 -5.73,-0.4 -1.95,0.76 -3.55,2.56 -5.45,4.85 -1.9,2.29 -4.11,5.06 -6.39,8.73 -2.29,3.68 -4.65,8.25 -7.55,13.29 -2.9,5.03 -6.35,10.53 -9.81,16.52 -3.47,5.98 -6.96,12.46 -9.38,17.47 -2.41,5.01 -3.75,8.55 -4.98,12.2 -1.23,3.65 -2.36,7.4 -4.6,16.98 -2.23,9.58 -5.57,25 -7.85,35.12 -2.29,10.12 -3.52,14.95 -4.14,17.6 -0.62,2.64 -0.62,3.11 -0.38,3.9 0.23,0.8 0.69,1.93 6.24,11.33 5.54,9.41 16.18,27.08 23.11,38.36 6.93,11.28 10.17,16.16 12.1,18.88 1.92,2.72 2.54,3.29 2.95,3.32 0.41,0.02 0.62,-0.49 2.49,-4.42z"/>
   <path class="fil0 str0" d="M144.11 335.4c12.71,-0.13 15.48,-0.23 16.97,-0.51 1.49,-0.29 1.7,-0.75 0.75,-3.4 -0.95,-2.64 -3.06,-7.47 -4.81,-11.32 -1.74,-3.86 -3.13,-6.74 -3.87,-9.23 -0.75,-2.49 -0.85,-4.6 -0.42,-7.99 0.44,-3.39 1.42,-8.06 2.91,-13.69 1.49,-5.63 3.49,-12.2 5.39,-18.78 1.9,-6.58 3.7,-13.15 4.65,-19.29 0.95,-6.14 1.05,-11.85 0.41,-15.8 -0.64,-3.96 -2.03,-6.17 -3.44,-8.69 -1.41,-2.52 -2.85,-5.34 -3.73,-7.09 -0.87,-1.75 -1.18,-2.41 -1.54,-2.23 -0.36,0.18 -0.77,1.2 -1.95,3.7 -1.18,2.49 -3.13,6.44 -4.98,9.5 -1.85,3.06 -3.6,5.22 -4.86,6.37 -1.25,1.16 -2.02,1.31 -2.79,1.21 -0.78,-0.1 -1.55,-0.46 -3.22,-1.98 -1.66,-1.51 -4.23,-4.19 -7.8,-9.58 -3.57,-5.4 -8.14,-13.51 -14.41,-24.02 -6.27,-10.51 -14.23,-23.41 -19.24,-31.99 -5,-8.58 -7.06,-12.84 -9.01,-15.77 -1.95,-2.93 -3.8,-4.52 -5.7,-5.47 -1.9,-0.95 -3.85,-1.26 -5.91,-0.59 -2.05,0.66 -4.21,2.31 -5.6,3.67 -1.38,1.36 -2,2.44 -2.46,3.78 -0.47,1.33 -0.77,2.93 -0.18,5.57 0.59,2.65 2.08,6.35 4.31,10.53 2.24,4.19 5.22,8.87 7.04,12.26 1.82,3.39 2.49,5.5 2.59,7.3 0.11,1.79 -0.36,3.28 -0.92,4.11 -0.57,0.82 -1.23,0.97 -2.49,0 -1.26,-0.98 -3.11,-3.09 -5.73,-6.56 -2.62,-3.46 -6.01,-8.29 -8.68,-13.05 -2.67,-4.75 -4.62,-9.42 -6.5,-12.69 -1.87,-3.26 -3.67,-5.11 -5.73,-5.98 -2.05,-0.88 -4.36,-0.77 -6.31,0.15 -1.95,0.93 -3.55,2.67 -4.65,4.7 -1.11,2.03 -1.72,4.34 -1.36,7.02 0.36,2.67 1.69,5.7 3.98,10.17 2.28,4.47 5.52,10.38 7.83,14.57 2.31,4.18 3.7,6.65 4.32,8.29 0.61,1.65 0.46,2.47 -0.03,3.27 -0.49,0.79 -1.31,1.56 -2.18,1.92 -0.88,0.36 -1.8,0.31 -2.7,-0.12 -0.9,-0.44 -1.77,-1.26 -3.39,-4.35 -1.62,-3.08 -3.98,-8.42 -6.19,-12.66 -2.21,-4.24 -4.26,-7.38 -6.16,-9.89 -1.9,-2.52 -3.65,-4.42 -5.86,-5.37 -2.21,-0.95 -4.88,-0.95 -7.04,-0.08 -2.15,0.87 -3.8,2.62 -4.67,4.45 -0.87,1.82 -0.98,3.72 -0.05,6.57 0.92,2.85 2.88,6.66 5.01,10.56 2.13,3.91 4.44,7.91 6.03,11.02 1.59,3.11 2.47,5.32 2.67,7.07 0.21,1.74 -0.25,3.03 -0.87,3.9 -0.62,0.88 -1.39,1.34 -2.41,1.36 -1.03,0.03 -2.32,-0.38 -3.34,-0.95 -1.03,-0.56 -1.8,-1.28 -3.37,-4.11 -1.56,-2.82 -3.93,-7.76 -5.83,-10.89 -1.9,-3.13 -3.34,-4.47 -4.52,-5.34 -1.18,-0.88 -2.1,-1.29 -3.67,-1.08 -1.57,0.2 -3.77,1.02 -5.09,1.87 -1.32,0.85 -1.75,1.72 -1.69,4.14 0.05,2.41 0.58,6.37 4.05,15.57 3.48,9.19 9.9,23.63 14.31,33.63 4.42,9.99 6.83,15.54 9.12,19.6 2.29,4.06 4.44,6.63 7.6,10.58 3.16,3.96 7.32,9.3 13.13,16.06 5.8,6.76 13.25,14.93 18.64,21.12 5.39,6.19 8.73,10.4 10.63,12.64 1.9,2.23 2.37,2.49 3.29,2.62 0.93,0.13 2.31,0.13 14.33,0.05 12.02,-0.08 34.67,-0.23 47.39,-0.36z"/>
   <path class="fil0 str0" d="M262.06 370.83c-2.77,-0.21 -5.54,-0.41 -9.63,-1.08 -4.08,-0.67 -9.47,-1.8 -13.74,-3.8 -4.26,-2.01 -7.39,-4.89 -11.68,-9.56 -4.29,-4.68 -9.74,-11.15 -14.85,-16.6 -5.11,-5.44 -9.88,-9.86 -14.38,-13.67 -4.49,-3.8 -8.7,-6.98 -12.94,-8.83 -4.24,-1.85 -8.5,-2.37 -11.87,-2.73 -3.36,-0.36 -5.83,-0.56 -7.29,-0.48 -1.47,0.07 -1.93,0.43 -0.98,3.05 0.95,2.62 3.32,7.5 5.16,11 1.85,3.49 3.19,5.6 2.98,7.58 -0.2,1.98 -1.95,3.83 -4.41,4.72 -2.47,0.9 -5.65,0.85 -21.78,0.98 -16.13,0.13 -45.2,0.44 -60.66,0.85 -15.46,0.41 -17.31,0.92 -19.03,2.52 -1.72,1.59 -3.32,4.26 -3.75,6.78 -0.44,2.52 0.28,4.88 1.85,6.91 1.56,2.03 3.98,3.72 8.01,4.78 4.03,1.05 9.68,1.46 14.48,1.69 4.81,0.24 8.76,0.29 11.71,0.41 2.96,0.13 4.91,0.34 6.22,1.14 1.31,0.79 1.98,2.18 1.57,3.41 -0.41,1.24 -1.9,2.31 -4.04,2.78 -2.13,0.46 -4.9,0.3 -10.55,0.15 -5.65,-0.15 -14.18,-0.31 -19.88,-0.15 -5.7,0.15 -8.58,0.61 -10.76,1.59 -2.18,0.98 -3.67,2.47 -4.31,4.39 -0.65,1.93 -0.44,4.29 0.51,6.58 0.95,2.29 2.64,4.5 6.29,5.75 3.65,1.26 9.25,1.57 15.08,1.88 5.83,0.31 11.89,0.62 15.89,1.21 4.01,0.59 5.96,1.46 7.04,2.51 1.08,1.06 1.28,2.29 1.03,3.09 -0.26,0.79 -0.98,1.15 -1.85,1.44 -0.87,0.28 -1.9,0.48 -5.06,0.51 -3.16,0.03 -8.45,-0.13 -13.66,-0.31 -5.22,-0.18 -10.35,-0.38 -14.08,0.23 -3.72,0.62 -6.03,2.06 -7.29,3.83 -1.26,1.77 -1.46,3.88 -1.26,6.01 0.21,2.14 0.82,4.29 2.62,5.89 1.8,1.59 4.78,2.62 9.91,3.16 5.14,0.54 12.43,0.59 17.44,1.07 5.01,0.49 7.73,1.42 9.14,2.39 1.42,0.98 1.52,2.01 0.93,3.06 -0.59,1.05 -1.88,2.13 -5.98,2.65 -4.11,0.51 -11.05,0.46 -15.9,1.1 -4.86,0.64 -7.63,1.98 -8.68,3.8 -1.06,1.83 -0.39,4.14 0.67,6.07 1.05,1.92 2.49,3.47 7.03,4.75 4.55,1.28 12.2,2.31 21.52,3.6 9.33,1.28 20.32,2.82 27.95,3.65 7.62,0.82 11.89,0.92 18.26,0.74 6.37,-0.18 14.84,-0.64 24.65,-1.93 9.81,-1.28 20.96,-3.39 27.53,-4.62 6.58,-1.23 8.58,-1.59 10.12,-2.42 1.54,-0.82 2.62,-2.1 9.55,-11.53 6.94,-9.43 19.73,-27 28.23,-38.69 8.5,-11.69 12.71,-17.5 16.92,-23.3z"/>
   <path class="fil0 str0" d="M351.77 315.33c-0.36,-0.56 -0.92,-0.82 -1.77,0 -0.85,0.83 -1.98,2.73 -4.44,5.32 -2.47,2.6 -6.27,5.89 -9.58,8.33 -3.32,2.44 -6.14,4.03 -12.77,5.26 -6.62,1.24 -17.05,2.11 -27.01,3.27 -9.97,1.15 -19.47,2.59 -26.41,4.44 -6.93,1.85 -11.3,4.11 -14.89,7.09 -3.6,2.98 -6.42,6.68 -7.91,8.94 -1.49,2.26 -1.65,3.08 0,3.55 1.64,0.46 5.08,0.56 8.52,0.77 3.45,0.2 6.89,0.51 9.22,0.87 2.34,0.36 3.57,0.77 4.6,1.93 1.03,1.15 1.85,3.05 1.49,5.03 -0.36,1.98 -1.9,4.04 -9.24,14 -7.35,9.97 -20.5,27.85 -29.38,39.88 -8.89,12.02 -13.51,18.19 -16.34,22.73 -2.82,4.55 -3.85,7.48 -4.03,9.94 -0.18,2.47 0.49,4.48 1.9,6.27 1.41,1.8 3.57,3.39 5.91,3.86 2.33,0.46 4.85,-0.21 7.93,-2.55 3.08,-2.33 6.73,-6.34 9.79,-10.17 3.05,-3.83 5.52,-7.48 7.88,-10.02 2.36,-2.54 4.62,-3.98 6.32,-4.75 1.69,-0.77 2.82,-0.88 3.7,0.05 0.87,0.92 1.49,2.88 -1.34,7.27 -2.82,4.39 -9.09,11.23 -13.25,15.83 -4.16,4.59 -6.21,6.96 -7.7,9.63 -1.49,2.67 -2.42,5.65 -2.44,8.4 -0.03,2.75 0.84,5.27 2.9,6.68 2.05,1.41 5.29,1.72 8.81,0.49 3.52,-1.24 7.32,-4.01 11.12,-7.79 3.8,-3.77 7.6,-8.55 10.14,-11.81 2.54,-3.27 3.83,-5.01 5.14,-6.27 1.31,-1.26 2.64,-2.03 4.13,-1.98 1.49,0.05 3.14,0.92 3.52,2.29 0.39,1.36 -0.49,3.21 -3.67,7.27 -3.19,4.06 -8.68,10.32 -12.1,14.46 -3.41,4.14 -4.75,6.14 -5.26,8.38 -0.52,2.23 -0.21,4.7 1,6.78 1.21,2.08 3.31,3.77 5.5,4.21 2.18,0.44 4.44,-0.38 7.49,-2.75 3.06,-2.36 6.91,-6.27 10.69,-10.2 3.77,-3.93 7.47,-7.88 10.22,-9.79 2.75,-1.9 4.55,-1.74 5.52,-0.69 0.98,1.05 1.13,3.01 -0.13,5.55 -1.26,2.54 -3.93,5.68 -6.24,8.4 -2.31,2.72 -4.26,5.04 -5.52,7.32 -1.26,2.29 -1.82,4.55 -1.21,6.4 0.62,1.84 2.42,3.27 4.45,3.99 2.03,0.71 4.29,0.71 6.34,0.26 2.05,-0.46 3.9,-1.38 10.2,-7.59 6.29,-6.22 17.02,-17.73 25.4,-26.67 8.37,-8.94 14.38,-15.31 18.77,-21.27 4.39,-5.96 7.16,-11.51 11.15,-19.63 3.98,-8.11 9.16,-18.8 13.3,-27.13 4.13,-8.32 7.22,-14.28 9.06,-17.7 1.85,-3.41 2.47,-4.29 2.57,-5.24 0.11,-0.95 -0.31,-1.98 -5.62,-13.46 -5.32,-11.48 -15.54,-33.42 -20.73,-44.83 -5.19,-11.41 -5.34,-12.28 -5.7,-12.85z"/>
   <path class="fil0 str0" d="M335.18 180.15c2.16,8.17 7.71,24.2 10.74,34.22 3.03,10.02 3.54,14.03 2.41,19.16 -1.13,5.14 -3.9,11.41 -7.65,21.33 -3.75,9.91 -8.48,23.48 -11.2,31.8 -2.72,8.33 -3.44,11.41 -2.62,15.31 0.82,3.91 3.18,8.64 4.31,11.98 1.13,3.34 1.03,5.29 1.49,5.55 0.47,0.25 1.49,-1.19 3.6,-3.81 2.11,-2.62 5.29,-6.42 7.91,-8.68 2.62,-2.26 4.67,-2.98 6.47,-3.19 1.8,-0.2 3.34,0.11 4.57,0.98 1.24,0.87 2.16,2.31 6.58,11.72 4.42,9.4 12.33,26.77 17.87,39.1 5.55,12.33 8.73,19.62 11.25,25.23 2.52,5.6 4.37,9.5 6.06,11.97 1.7,2.46 3.24,3.49 5.29,4.11 2.06,0.61 4.63,0.82 6.89,-0.05 2.26,-0.88 4.21,-2.83 5.44,-5.14 1.23,-2.31 1.75,-4.99 0.41,-9.51 -1.33,-4.52 -4.52,-10.89 -6.73,-15.21 -2.21,-4.31 -3.44,-6.57 -4,-8.94 -0.57,-2.36 -0.47,-4.83 0.41,-6.32 0.87,-1.49 2.51,-2 4,-1.54 1.49,0.46 2.83,1.9 4.68,5.76 1.85,3.85 4.21,10.12 6.67,16.23 2.47,6.12 5.04,12.08 7.5,15.37 2.47,3.28 4.83,3.9 7.4,3.49 2.57,-0.41 5.34,-1.85 6.93,-4.42 1.6,-2.57 2.01,-6.27 0.72,-11.46 -1.28,-5.19 -4.26,-11.87 -6.37,-16.9 -2.1,-5.04 -3.33,-8.43 -3.69,-11.1 -0.36,-2.67 0.15,-4.62 1.23,-5.34 1.08,-0.72 2.72,-0.21 4.01,1.18 1.28,1.39 2.2,3.65 3.8,7.76 1.59,4.11 3.85,10.07 6.11,14.85 2.26,4.78 4.52,8.37 6.83,10.22 2.31,1.85 4.67,1.95 6.88,0.87 2.21,-1.07 4.27,-3.33 5.5,-5.24 1.23,-1.9 1.64,-3.44 0.92,-6.26 -0.72,-2.83 -2.56,-6.94 -4.47,-11.36 -1.9,-4.42 -3.85,-9.15 -4.52,-12.59 -0.66,-3.44 -0.05,-5.6 1.03,-6.68 1.08,-1.08 2.62,-1.08 4.06,0.1 1.44,1.19 2.77,3.55 4.52,7.04 1.75,3.5 3.9,8.12 6.01,11.1 2.11,2.98 4.16,4.32 6.43,4.37 2.26,0.05 4.74,-1.18 5.97,-3.19 1.24,-2 1.24,-4.77 -0.2,-10.94 -1.45,-6.17 -4.33,-15.72 -7.21,-25.95 -2.88,-10.22 -5.76,-21.12 -9.25,-30.31 -3.5,-9.2 -7.61,-16.7 -13.72,-26.26 -6.11,-9.56 -14.23,-21.17 -20.75,-31.34 -6.52,-10.17 -11.45,-18.91 -15.46,-26.87 -4.01,-7.97 -7.09,-15.16 -9.04,-19.94 -1.95,-4.78 -2.77,-7.14 -3.29,-9.51 -0.51,-2.36 -0.72,-4.72 -1.44,-5.6 -0.71,-0.87 -1.95,-0.25 -13.86,0.67 -11.92,0.93 -34.52,2.16 -46.44,2.93 -11.91,0.77 -13.15,1.08 -10.99,9.25z"/>
  </g>
 </g>
</svg>
