<?xml version="1.0" encoding="UTF-8"?>
<!DOCTYPE svg PUBLIC "-//W3C//DTD SVG 1.1//EN" "http://www.w3.org/Graphics/SVG/1.1/DTD/svg11.dtd">
<!-- Creator: CorelDRAW -->
<svg xmlns="http://www.w3.org/2000/svg" xml:space="preserve" width="5mm" height="5.5mm" version="1.1" style="shape-rendering:geometricPrecision; text-rendering:geometricPrecision; image-rendering:optimizeQuality; fill-rule:evenodd; clip-rule:evenodd"
viewBox="0 0 500 550"
 xmlns:xlink="http://www.w3.org/1999/xlink"
 xmlns:xodm="http://www.corel.com/coreldraw/odm/2003">
 <defs>
  <style type="text/css">
   <![CDATA[
    .str0 {stroke:#254776;stroke-width:20;stroke-miterlimit:22.9256}
    .fil2 {fill:none}
    .fil0 {fill:#FEFEFE}
    .fil1 {fill:#254776}
   ]]>
  </style>
 </defs>
 <g id="Слой_x0020_1">
  <metadata id="CorelCorpID_0Corel-Layer"/>
  <g id="_1760141749424">
   <path class="fil0 str0" d="M26.96 102.99c0.9,-3.16 2.02,-6.76 3.71,-9.13 1.69,-2.36 3.94,-3.49 38.4,-13.4 34.46,-9.92 101.13,-28.62 135.93,-38.19 34.8,-9.58 37.73,-10.03 43.02,-8.9 5.29,1.13 12.95,3.83 47.86,13.86 34.91,10.02 97.07,27.37 128.6,36.38 31.54,9.01 32.44,9.69 33.79,17.24 1.35,7.55 3.15,21.97 4.5,42.47 1.36,20.5 2.26,47.09 2.03,67.48 -0.22,20.39 -1.58,34.58 -3.38,51.14 -1.8,16.56 -4.05,35.49 -7.21,52.72 -3.15,17.24 -7.2,32.78 -11.71,46.3 -4.5,13.52 -9.46,25.01 -16.55,36.5 -7.1,11.49 -16.33,22.98 -28.27,35.6 -11.93,12.62 -26.57,26.36 -41.44,38.41 -14.86,12.06 -29.95,22.42 -45.61,31.1 -15.65,8.67 -31.87,15.65 -43.02,19.82 -11.15,4.17 -17.23,5.52 -21.39,6.42 -4.17,0.91 -6.42,1.36 -9.46,0.79 -3.04,-0.56 -6.87,-2.14 -16.67,-6.08 -9.8,-3.94 -25.56,-10.25 -42.12,-19.71 -16.55,-9.47 -33.89,-22.08 -48.53,-33.58 -14.64,-11.49 -26.58,-21.85 -37.84,-34.47 -11.26,-12.61 -21.85,-27.48 -29.51,-39.65 -7.66,-12.17 -12.39,-21.63 -16.66,-32.9 -4.28,-11.26 -8.11,-24.33 -11.49,-38.52 -3.38,-14.2 -6.31,-29.52 -8.22,-47.54 -1.92,-18.03 -2.82,-38.75 -3.04,-57.68 -0.23,-18.93 0.22,-36.05 0.67,-53.73 0.45,-17.69 0.9,-35.94 1.47,-46.42 0.56,-10.47 1.24,-13.18 2.14,-16.33z"/>
   <g>
    <path class="fil1" d="M126.73 281.39c0,-17.65 4.02,-34.37 10.38,-48.18 5.72,-12.42 14.2,-25.07 23.77,-34.41 21.42,-20.93 49.73,-34.44 82.28,-34.44 65.45,0 117.56,52.67 117.56,116.75 0,83.96 -85.7,142.14 -165.53,106.73 -8.41,-3.72 -20.18,-11.01 -26.75,-16.95 -3.46,-3.14 -9.97,-8.85 -12.89,-12.65 -0.64,-0.82 -0.99,-1.15 -1.68,-2 -17.12,-20.95 -27.14,-46.1 -27.14,-74.85zm-13.51 -5.88l0 11.76c0.38,0.94 1.15,11.48 1.51,13.86 0.67,4.44 1.53,8.94 2.64,13.02 2.35,8.61 4.94,15.25 8.31,22.92 3.98,9.1 12.01,21.06 18.33,28.48 4.4,5.16 8.49,9.02 13.3,13.64 6.89,6.6 22.86,16.76 30.59,20.18 30.74,13.61 46.52,11.16 49.95,12.58l11.75 0c4.19,-1.74 38.08,1.31 76.36,-29.29 5.94,-4.75 12.48,-11.31 17.49,-17.11 12.18,-14.1 21.88,-33.11 26.6,-51.43 1.09,-4.26 1.98,-8.49 2.64,-12.96 0.35,-2.35 1.12,-12.85 1.55,-13.89l0 -11.76c-1.61,-3.89 1.21,-36.65 -27.5,-74.19 -0.57,-0.74 -1.19,-1.5 -1.77,-2.2l-5.24 -6.1c-1.3,-1.59 -2.44,-2.37 -3.87,-3.79 -1.44,-1.45 -2.32,-2.73 -3.92,-4.02 -1.46,-1.17 -2.58,-2.25 -4.08,-3.58 -7.16,-6.32 -19.98,-14.46 -28.49,-18.32 -11.8,-5.35 -22.72,-8.94 -35.91,-10.96 -2.36,-0.36 -12.93,-1.13 -13.86,-1.51l-11.75 0c-3.13,1.29 -20.19,-0.88 -49.98,12.55 -7.09,3.2 -24,13.56 -30.53,20.24 -0.91,0.93 -1.09,0.96 -1.97,1.72l-8.65 8.94c-0.41,0.47 -0.59,0.51 -1.02,0.96 -6.3,6.57 -16.2,21.77 -20.02,30.46 -5.11,11.63 -9.13,22.89 -10.95,35.94 -0.31,2.23 -1.18,13.06 -1.51,13.86z"/>
    <path class="fil1" d="M302.93 313.32c-2.58,0.54 -3.81,2.19 -5.27,4.14 -1.58,2.11 -3.03,3.39 -4.64,5.01 -3.32,3.32 -2.58,2.69 -6.75,6.03 -20.09,16.09 -50.65,18.99 -74.35,6.56 -7.27,-3.82 -16.24,-10.68 -21.29,-17.3 -6.82,-8.95 -14.75,-1.8 -13.15,4.37 1.32,5.14 14.61,16.23 19.16,19.42 17.23,12.08 39.53,17.47 61.57,13.64 16.95,-2.94 29.75,-10.02 41.02,-19.71l4.92 -5c2.03,-2.18 4.16,-4.25 5.91,-6.85 3.04,-4.54 -0.41,-11.71 -7.13,-10.31z"/>
    <path class="fil1" d="M198.57 237.87c-11.14,2.93 -8.89,13.68 -8.89,23.66 0,5.61 -0.48,10.08 2.55,13.77 6.02,7.33 17.61,4.77 20.03,-4.12 0.86,-3.18 0.44,-11.69 0.45,-15.61 0,-5.44 0.53,-10.11 -2.46,-13.63 -2.29,-2.69 -6.29,-5.48 -11.68,-4.07z"/>
    <path class="fil1" d="M284.25 237.87c-11.08,2.95 -8.84,13.56 -8.84,23.66 0,5.51 -0.5,10.12 2.49,13.78 5.82,7.13 17.52,4.97 20.05,-4.14 0.82,-2.95 0.41,-11.85 0.41,-15.6 0,-5.51 0.65,-9.96 -2.43,-13.62 -2.26,-2.68 -6.32,-5.5 -11.68,-4.08z"/>
   </g>
   <g>
    <path class="fil2" d="M126.73 281.39c0,-17.65 4.02,-34.37 10.38,-48.18 5.72,-12.42 14.2,-25.07 23.77,-34.41 21.42,-20.93 49.73,-34.44 82.28,-34.44 65.45,0 117.56,52.67 117.56,116.75 0,83.96 -85.7,142.14 -165.53,106.73 -8.41,-3.72 -20.18,-11.01 -26.75,-16.95 -3.46,-3.14 -9.97,-8.85 -12.89,-12.65 -0.64,-0.82 -0.99,-1.15 -1.68,-2 -17.12,-20.95 -27.14,-46.1 -27.14,-74.85zm-13.51 -5.88l0 11.76c0.38,0.94 1.15,11.48 1.51,13.86 0.67,4.44 1.53,8.94 2.64,13.02 2.35,8.61 4.94,15.25 8.31,22.92 3.98,9.1 12.01,21.06 18.33,28.48 4.4,5.16 8.49,9.02 13.3,13.64 6.89,6.6 22.86,16.76 30.59,20.18 30.74,13.61 46.52,11.16 49.95,12.58l11.75 0c4.19,-1.74 38.08,1.31 76.36,-29.29 5.94,-4.75 12.48,-11.31 17.49,-17.11 12.18,-14.1 21.88,-33.11 26.6,-51.43 1.09,-4.26 1.98,-8.49 2.64,-12.96 0.35,-2.35 1.12,-12.85 1.55,-13.89l0 -11.76c-1.61,-3.89 1.21,-36.65 -27.5,-74.19 -0.57,-0.74 -1.19,-1.5 -1.77,-2.2l-5.24 -6.1c-1.3,-1.59 -2.44,-2.37 -3.87,-3.79 -1.44,-1.45 -2.32,-2.73 -3.92,-4.02 -1.46,-1.17 -2.58,-2.25 -4.08,-3.58 -7.16,-6.32 -19.98,-14.46 -28.49,-18.32 -11.8,-5.35 -22.72,-8.94 -35.91,-10.96 -2.36,-0.36 -12.93,-1.13 -13.86,-1.51l-11.75 0c-3.13,1.29 -20.19,-0.88 -49.98,12.55 -7.09,3.2 -24,13.56 -30.53,20.24 -0.91,0.93 -1.09,0.96 -1.97,1.72l-8.65 8.94c-0.41,0.47 -0.59,0.51 -1.02,0.96 -6.3,6.57 -16.2,21.77 -20.02,30.46 -5.11,11.63 -9.13,22.89 -10.95,35.94 -0.31,2.23 -1.18,13.06 -1.51,13.86z"/>
    <path class="fil2" d="M302.93 313.32c-2.58,0.54 -3.81,2.19 -5.27,4.14 -1.58,2.11 -3.03,3.39 -4.64,5.01 -3.32,3.32 -2.58,2.69 -6.75,6.03 -20.09,16.09 -50.65,18.99 -74.35,6.56 -7.27,-3.82 -16.24,-10.68 -21.29,-17.3 -6.82,-8.95 -14.75,-1.8 -13.15,4.37 1.32,5.14 14.61,16.23 19.16,19.42 17.23,12.08 39.53,17.47 61.57,13.64 16.95,-2.94 29.75,-10.02 41.02,-19.71l4.92 -5c2.03,-2.18 4.16,-4.25 5.91,-6.85 3.04,-4.54 -0.41,-11.71 -7.13,-10.31z"/>
    <path class="fil2" d="M198.57 237.87c-11.14,2.93 -8.89,13.68 -8.89,23.66 0,5.61 -0.48,10.08 2.55,13.77 6.02,7.33 17.61,4.77 20.03,-4.12 0.86,-3.18 0.44,-11.69 0.45,-15.61 0,-5.44 0.53,-10.11 -2.46,-13.63 -2.29,-2.69 -6.29,-5.48 -11.68,-4.07z"/>
    <path class="fil2" d="M284.25 237.87c-11.08,2.95 -8.84,13.56 -8.84,23.66 0,5.51 -0.5,10.12 2.49,13.78 5.82,7.13 17.52,4.97 20.05,-4.14 0.82,-2.95 0.41,-11.85 0.41,-15.6 0,-5.51 0.65,-9.96 -2.43,-13.62 -2.26,-2.68 -6.32,-5.5 -11.68,-4.08z"/>
   </g>
  </g>
 </g>
</svg>
